<svg width="94" height="94" viewBox="0 0 94 94" fill="none" xmlns="http://www.w3.org/2000/svg">
<path d="M63.9815 53.3293C45.6684 59.5006 39.6312 66.3722 35.167 83.4869C30.7029 66.3722 24.6658 59.5006 6.35254 53.3293C24.6658 47.1583 30.7029 40.2868 35.167 23.1719C39.6312 40.2868 45.6684 47.1583 63.9815 53.3293Z" stroke="white" stroke-width="5.88" stroke-linecap="round" stroke-linejoin="round"/>
<path d="M86.6995 24.7797C76.3692 28.2468 72.9641 32.1076 70.4458 41.7231C67.9277 32.1076 64.5223 28.2468 54.1924 24.7797C64.5223 21.3126 67.9277 17.4518 70.4458 7.83618C72.9641 17.4518 76.3692 21.3126 86.6995 24.7797Z" stroke="white" stroke-width="5.88" stroke-linecap="round" stroke-linejoin="round"/>
<path d="M88.0426 74.766C80.3967 77.2781 77.8761 80.0759 76.012 87.0437C74.1483 80.0759 71.6277 77.2781 63.9814 74.766C71.6277 72.2534 74.1483 69.456 76.012 62.4883C77.8761 69.456 80.3967 72.2534 88.0426 74.766Z" stroke="white" stroke-width="5.88" stroke-linecap="round" stroke-linejoin="round"/>
</svg>
