<svg width="94" height="94" viewBox="0 0 94 94" fill="none" xmlns="http://www.w3.org/2000/svg">
<path d="M21.1111 35.1883C20.3846 35.6145 19.7656 36.2016 19.3017 36.9045C18.8377 37.6074 18.5411 38.4074 18.4347 39.2429C18.3284 40.0783 18.415 40.9271 18.688 41.7238C18.961 42.5206 19.4131 43.2441 20.0096 43.8387L50.165 73.9941C50.7596 74.5906 51.4831 75.0427 52.2799 75.3157C53.0766 75.5887 53.9254 75.6753 54.7608 75.569C55.5963 75.4626 56.3963 75.166 57.0992 74.702C57.8021 74.2381 58.3892 73.6191 58.8154 72.8926C62.3873 66.7476 63.4525 59.462 61.7895 52.5516L85.7618 37.2958C86.4576 36.8532 87.0452 36.26 87.4812 35.56C87.9171 34.8599 88.1903 34.0709 88.2805 33.2512C88.3707 32.4314 88.2757 31.6019 88.0024 30.8238C87.7292 30.0457 87.2847 29.3389 86.7017 28.7555L65.2482 7.30198C64.6651 6.71885 63.9585 6.2741 63.1805 6.00056C62.4026 5.72701 61.5732 5.63166 60.7534 5.72152C59.9337 5.81139 59.1446 6.08419 58.4444 6.51978C57.7442 6.95538 57.1508 7.54265 56.7079 8.23826L41.4521 32.2142C34.5417 30.5512 27.2561 31.6164 21.1111 35.1883Z" stroke="white" stroke-width="5.88" stroke-linecap="round" stroke-linejoin="round"/>
<path d="M35.0782 58.9182L5.69385 88.3026" stroke="white" stroke-width="5.88" stroke-linecap="round" stroke-linejoin="round"/>
</svg>
