<svg width="94" height="94" viewBox="0 0 94 94" fill="none" xmlns="http://www.w3.org/2000/svg">
<path d="M86.9041 35.7903L47.0004 5.68262L7.06 35.7903C6.23431 36.5522 5.73781 37.6058 5.67578 38.7276V84.7042C5.67869 85.6557 6.05794 86.5674 6.73074 87.2402C7.40353 87.913 8.3152 88.2922 9.26667 88.2951H33.2133V69.0299C33.2133 65.3782 34.6639 61.876 37.2461 59.2939C39.8282 56.7118 43.3303 55.2611 46.982 55.2611C50.6337 55.2611 54.1359 56.7118 56.718 59.2939C59.3002 61.876 60.7508 65.3782 60.7508 69.0299V88.3061H84.6937C85.6455 88.3032 86.5576 87.9241 87.231 87.2514C87.9043 86.5787 88.2844 85.667 88.2883 84.7152V38.7276C88.2247 37.6062 87.7285 36.5532 86.9041 35.7903Z" stroke="white" stroke-width="5.88" stroke-linecap="round" stroke-linejoin="round"/>
</svg>
