<svg width="94" height="94" viewBox="0 0 94 94" fill="none" xmlns="http://www.w3.org/2000/svg">
<g clip-path="url(#clip0_292_313)">
<path d="M87.9293 0.000127177H6.07096C5.27558 -0.00503773 4.48704 0.147164 3.75071 0.44797C3.01439 0.748776 2.34483 1.19225 1.78059 1.75285C1.21634 2.31346 0.768545 2.98013 0.462979 3.71449C0.157413 4.44885 0.00011124 5.2364 0.000128009 6.03179V87.9293C-0.00507532 88.728 0.148399 89.5197 0.451644 90.2586C0.754889 90.9975 1.20187 91.6689 1.76663 92.2336C2.3314 92.7984 3.00271 93.2454 3.74161 93.5486C4.48051 93.8519 5.27227 94.0053 6.07096 94.0001H87.9293C88.728 94.0053 89.5197 93.8519 90.2586 93.5486C90.9975 93.2454 91.6689 92.7984 92.2336 92.2336C92.7984 91.6689 93.2454 90.9975 93.5486 90.2586C93.8519 89.5197 94.0053 88.728 94.0001 87.9293V6.03179C94.0001 5.2364 93.8428 4.44885 93.5373 3.71449C93.2317 2.98013 92.7839 2.31346 92.2197 1.75285C91.6554 1.19225 90.9859 0.748776 90.2495 0.44797C89.5132 0.147164 88.7247 -0.00503773 87.9293 0.000127177ZM73.6726 30.7068L46.256 67.9151C45.9438 68.3406 45.5488 68.6985 45.0948 68.9676C44.6409 69.2366 44.1372 69.411 43.6141 69.4806C43.091 69.5501 42.5593 69.5131 42.0508 69.372C41.5423 69.2309 41.0676 68.9885 40.6551 68.6593L21.0718 52.9926C20.5713 52.7154 20.1377 52.3318 19.8013 51.869C19.465 51.4061 19.2342 50.8752 19.125 50.3136C19.0159 49.752 19.0312 49.1732 19.1697 48.6181C19.3083 48.063 19.5668 47.545 19.927 47.1005C20.2872 46.656 20.7405 46.2958 21.2549 46.0453C21.7692 45.7948 22.3323 45.66 22.9043 45.6505C23.4764 45.6409 24.0436 45.7568 24.5661 45.9899C25.0885 46.2231 25.5536 46.5679 25.9285 47.0001L42.3393 60.121L67.3276 26.2026C67.9405 25.3612 68.8625 24.7978 69.8908 24.6362C70.9192 24.4746 71.9696 24.7281 72.811 25.341C73.6524 25.9538 74.2158 26.8758 74.3774 27.9042C74.539 28.9325 74.2855 29.9829 73.6726 30.8243V30.7068Z" fill="white"/>
</g>
<defs>
<clipPath id="clip0_292_313">
<rect width="94" height="94" fill="white"/>
</clipPath>
</defs>
</svg>
