<svg width="94" height="94" viewBox="0 0 94 94" fill="none" xmlns="http://www.w3.org/2000/svg">
<path d="M82.7984 22.2163H52.5072C49.5858 22.2163 46.7841 23.3768 44.7184 25.4425C42.6527 27.5082 41.4922 30.3099 41.4922 33.2313V47.0001" stroke="white" stroke-width="5.88" stroke-linecap="round" stroke-linejoin="round"/>
<path d="M66.2764 38.7388L82.7989 22.2163L66.2764 5.69385" stroke="white" stroke-width="5.88" stroke-linecap="round" stroke-linejoin="round"/>
<path d="M71.7837 55.2612V82.7987C71.7837 84.2594 71.2034 85.6602 70.1706 86.6931C69.1377 87.7259 67.7369 88.3062 66.2762 88.3062H16.7087C15.248 88.3062 13.8471 87.7259 12.8143 86.6931C11.7814 85.6602 11.2012 84.2594 11.2012 82.7987V38.7387C11.2012 37.278 11.7814 35.8772 12.8143 34.8443C13.8471 33.8115 15.248 33.2312 16.7087 33.2312H24.9699" stroke="white" stroke-width="5.88" stroke-linecap="round" stroke-linejoin="round"/>
</svg>
