<svg width="94" height="74" viewBox="0 0 94 74" fill="none" xmlns="http://www.w3.org/2000/svg">
<path d="M69.03 45.8251L74.6844 60.7688H85.6994C86.2149 60.8046 86.7091 60.9886 87.1224 61.2988C87.5358 61.609 87.8506 62.032 88.0291 62.517C88.2076 63.002 88.242 63.5282 88.1284 64.0323C88.0147 64.5364 87.7577 64.9969 87.3883 65.3584L77.8053 72.0408L83.1292 84.194C83.4029 84.7548 83.486 85.3897 83.3657 86.0021C83.2454 86.6145 82.9284 87.1708 82.4629 87.5864C81.9974 88.0021 81.4088 88.2543 80.7868 88.3047C80.1648 88.3551 79.5433 88.2009 79.0169 87.8657L66.2028 80.5223L53.3887 87.8657C52.8624 88.1852 52.2471 88.3266 51.6341 88.2689C51.0211 88.2112 50.443 87.9575 49.9856 87.5454C49.5282 87.1332 49.2157 86.5847 49.0946 85.981C48.9734 85.3773 49.0501 84.7507 49.3131 84.194L54.6003 72.0408L45.0907 65.3584C44.7276 64.9769 44.4832 64.4981 44.3873 63.9803C44.2913 63.4624 44.3479 62.9278 44.5502 62.4416C44.7525 61.9553 45.0917 61.5383 45.5267 61.2414C45.9616 60.9444 46.4735 60.7802 47 60.7688H58.015L63.6694 45.8251C63.9011 45.3081 64.2775 44.8692 64.753 44.5612C65.2286 44.2532 65.7831 44.0894 66.3497 44.0894C66.9163 44.0894 67.4707 44.2532 67.9463 44.5612C68.4219 44.8692 68.7982 45.3081 69.03 45.8251Z" stroke="white" stroke-width="5.88" stroke-linecap="round" stroke-linejoin="round"/>
<path d="M38.3712 87.3883C30.7432 85.7589 23.7324 82.0031 18.1501 76.5552C12.5677 71.1074 8.64196 64.1903 6.82706 56.6043C5.01215 49.0183 5.38227 41.0735 7.89459 33.689C10.4069 26.3046 14.9587 19.7825 21.0234 14.8772C27.088 9.97198 34.4176 6.88416 42.1641 5.97105C49.9106 5.05793 57.7572 6.35683 64.7962 9.71747C71.8352 13.0781 77.7788 18.3631 81.9393 24.961C86.0998 31.5588 88.3071 39.1999 88.3059 47" stroke="white" stroke-width="5.88" stroke-linecap="round" stroke-linejoin="round"/>
<path d="M21.298 79.3107L24.9697 60.7688H28.9351C29.7725 60.7717 30.5993 60.5809 31.3508 60.2115C32.1024 59.8421 32.7584 59.304 33.2676 58.6392C33.7922 57.9897 34.1555 57.2253 34.3278 56.4084C34.5001 55.5915 34.4765 54.7455 34.259 53.9395L31.5052 42.9245C31.2167 41.7303 30.5346 40.6681 29.5688 39.9088C28.603 39.1495 27.4098 38.7374 26.1813 38.7388H6.61133" stroke="white" stroke-width="5.88" stroke-linecap="round" stroke-linejoin="round"/>
<path d="M80.0444 22.2163H65.064C63.8355 22.2149 62.6423 22.6271 61.6765 23.3863C60.7107 24.1456 60.0287 25.2079 59.7401 26.402L56.9863 37.417" stroke="white" stroke-width="5.88" stroke-linecap="round" stroke-linejoin="round"/>
</svg>
