<svg width="94" height="94" viewBox="0 0 94 94" fill="none" xmlns="http://www.w3.org/2000/svg">
<path d="M10.4667 41.0775C9.34359 40.7607 8.35156 40.0924 7.63606 39.1706C6.92055 38.2488 6.5192 37.122 6.49087 35.9554C6.46254 34.7889 6.80871 33.6439 7.47862 32.6884C8.14854 31.733 9.10695 31.0173 10.2133 30.6463L83.9073 6.61161C84.3901 6.45424 84.9069 6.43322 85.4008 6.55086C85.8948 6.6685 86.3466 6.92023 86.7066 7.27831C87.0666 7.63639 87.3207 8.08691 87.4409 8.58021C87.5612 9.0735 87.5429 9.59043 87.3881 10.074L63.3717 83.8047C63.0024 84.913 62.2871 85.8735 61.3311 86.5449C60.3751 87.2162 59.2289 87.5631 58.0611 87.5343C56.8932 87.5055 55.7654 87.1027 54.8437 86.385C53.9219 85.6674 53.2548 84.6728 52.9405 83.5477L44.6939 49.2874L10.4667 41.0775Z" stroke="white" stroke-width="5.88" stroke-linecap="round" stroke-linejoin="round"/>
<path d="M86.7092 7.27246L44.6943 49.2873" stroke="white" stroke-width="5.88" stroke-linecap="round" stroke-linejoin="round"/>
</svg>
