<svg width="24" height="24" viewBox="0 0 24 24" fill="none" xmlns="http://www.w3.org/2000/svg">
<g clip-path="url(#clip0_156_249)">
<path fill-rule="evenodd" clip-rule="evenodd" d="M14.049 8.54928C14.7774 8.1832 15.7041 7.64432 16.632 6.906C16.8276 7.31552 16.8491 7.67288 16.7483 7.96144C16.6768 8.1648 16.5422 8.34168 16.3652 8.4824C16.1736 8.63448 15.9342 8.7452 15.6696 8.80504C15.1675 8.91904 14.5814 8.85248 14.049 8.54928ZM14.1753 12.3002L15.1394 12.8615C13.1709 13.9737 12.6357 16.0388 12 18.0502C11.3644 16.0388 10.8291 13.9737 8.86064 12.8615L9.82476 12.3002C9.91803 12.2646 9.99775 12.2003 10.0525 12.1163C10.1072 12.0323 10.1342 11.933 10.1295 11.8326C10.0412 9.9488 10.5458 9.11576 11.2264 8.59272C11.4706 8.40536 11.7371 8.31128 12 8.31128C12.2629 8.31128 12.5294 8.40536 12.7737 8.59272C13.4543 9.11576 13.9589 9.9488 13.8706 11.8326C13.8659 11.933 13.8928 12.0323 13.9476 12.1163C14.0023 12.2003 14.0821 12.2646 14.1753 12.3002ZM12 0C13.1144 0.03016 14.2317 0.24824 15.2013 0.67248C15.8727 0.96664 16.4992 1.3552 17.0665 1.81984C17.3227 2.0296 17.5337 2.23224 17.766 2.46552C18.3928 2.48736 19.3087 1.78552 19.734 1.1288C19.0021 3.5472 15.6626 6.40312 13.3506 7.49592C13.3497 7.49552 13.349 7.49496 13.3483 7.49448C12.9334 7.17512 12.4667 7.01544 12 7.01544C11.5333 7.01544 11.0667 7.17512 10.6517 7.49448C10.651 7.49488 10.6504 7.4956 10.6494 7.49592C8.33738 6.40312 4.99794 3.5472 4.26611 1.1288C4.69127 1.78552 5.60722 2.48736 6.23397 2.46552C6.46643 2.23232 6.67738 2.0296 6.93349 1.81984C7.5008 1.3552 8.1273 0.96664 8.79873 0.67248C9.76841 0.24824 10.8856 0.03016 12 0ZM9.95095 8.54928C9.2227 8.1832 8.29588 7.64432 7.3681 6.906C7.17246 7.31552 7.15103 7.67288 7.25175 7.96144C7.32326 8.1648 7.45786 8.34168 7.63476 8.4824C7.82651 8.63448 8.06588 8.7452 8.33048 8.80504C8.83254 8.91904 9.41865 8.85248 9.95095 8.54928Z" fill="white"/>
<path fill-rule="evenodd" clip-rule="evenodd" d="M17.6482 6.00123C18.159 5.48163 18.609 4.90651 18.971 4.39331L19.1548 4.74203C19.7465 5.93539 20.054 7.12395 20.054 8.46155L20.0527 10.5841L20.0638 11.6844C20.1067 14.3857 20.6865 17.1188 22 19.6199L19.2518 17.3861L17.3073 20.5668L15.2644 18.6283L12 23.9683L8.73556 18.6284L6.69278 20.5669L4.74825 17.3862L2 19.62C3.31349 17.1188 3.89333 14.3858 3.93627 11.6845L3.94738 10.5842L3.94611 8.46163C3.94611 7.12395 4.25349 5.93539 4.8454 4.74211L5.02913 4.39339C5.39103 4.90659 5.84103 5.48163 6.3519 6.00131L6.19238 6.33531C5.88246 6.98403 5.77984 7.70939 6.02127 8.39923C6.1769 8.84355 6.46095 9.22459 6.82714 9.51547C7.1827 9.79795 7.60349 9.98835 8.04405 10.0884C8.33103 10.1535 8.62341 10.1803 8.91389 10.1712C8.84611 10.5584 8.81651 10.9601 8.8146 11.3694L6.22222 12.8787L8.2227 14.009C8.38259 14.0994 8.5348 14.2029 8.67778 14.3185C10.3271 15.8111 11.3187 20.2269 12.0001 22.3838C12.6816 20.2269 13.6731 15.8111 15.3225 14.3185C15.4654 14.2029 15.6176 14.0993 15.7775 14.009L17.778 12.8787L15.1856 11.3694C15.1837 10.9601 15.154 10.5584 15.0863 10.1712C15.3767 10.1803 15.6691 10.1535 15.9561 10.0884C16.3967 9.98835 16.8175 9.79795 17.173 9.51547C17.5391 9.22459 17.8233 8.84355 17.9788 8.39923C18.2203 7.70939 18.1176 6.98411 17.8078 6.33531L17.6483 6.00131L17.6482 6.00123Z" fill="white"/>
</g>
<defs>
<clipPath id="clip0_156_249">
<rect width="20" height="24" fill="white" transform="translate(2)"/>
</clipPath>
</defs>
</svg>
