<svg width="24" height="24" viewBox="0 0 24 24" fill="none" xmlns="http://www.w3.org/2000/svg">
<path fill-rule="evenodd" clip-rule="evenodd" d="M7.58333 8.97959C5.88046 8.97959 4.5 10.3319 4.5 12C4.5 13.6681 5.88046 15.0204 7.58333 15.0204H10.75V12V8.97959H7.58333ZM15.3333 7.5102L15.4167 7.5102C17.1195 7.5102 18.5 6.15792 18.5 4.4898C18.5 2.82167 17.1195 1.46939 15.4167 1.46939H12.25V7.5102L15.3333 7.5102ZM17.9301 8.2449C19.1768 7.4425 20 6.06032 20 4.4898C20 2.01015 17.948 0 15.4167 0H12.25H11.5H10.75H7.58333C5.05203 0 3 2.01015 3 4.4898C3 6.06032 3.82317 7.4425 5.06992 8.2449C3.82317 9.0473 3 10.4295 3 12C3 13.5705 3.82317 14.9527 5.06992 15.7551C3.82317 16.5575 3 17.9397 3 19.5102C3 21.995 5.07802 24 7.60405 24C10.1531 24 12.25 21.9767 12.25 19.4694V16.4898V15.7551V15.322C13.0641 16.0475 14.146 16.4898 15.3333 16.4898H15.4167C17.948 16.4898 20 14.4796 20 12C20 10.4295 19.1768 9.0473 17.9301 8.2449ZM15.4167 8.97959H15.3333C13.6305 8.97959 12.25 10.3319 12.25 12C12.25 13.6681 13.6305 15.0204 15.3333 15.0204H15.4167C17.1195 15.0204 18.5 13.6681 18.5 12C18.5 10.3319 17.1195 8.97959 15.4167 8.97959ZM4.5 19.5102C4.5 17.8421 5.88046 16.4898 7.58333 16.4898H10.75V19.4694C10.75 21.1549 9.33521 22.5306 7.60405 22.5306C5.89591 22.5306 4.5 21.1732 4.5 19.5102ZM10.75 7.5102H7.58333C5.88046 7.5102 4.5 6.15792 4.5 4.4898C4.5 2.82167 5.88046 1.46939 7.58333 1.46939H10.75V7.5102Z" fill="white"/>
</svg>
