<svg width="168" height="160" viewBox="0 0 168 160" fill="none" xmlns="http://www.w3.org/2000/svg">
<path d="M67.8486 0C73.8439 0.000113158 78.7039 4.94021 78.7041 11.0342V54.4004C78.7039 68.5387 67.4278 80 53.5186 80C67.4278 80 78.7039 91.4613 78.7041 105.6V147.2C78.704 154.269 73.066 160 66.1113 160H12.5928C5.63824 160 0.000105465 154.269 0 147.2V68.9658C0 30.8772 30.3772 0 67.8486 0ZM161.874 0C165.094 0.000117347 167.704 2.65312 167.704 5.92578V154.074C167.704 157.347 165.094 160 161.874 160C121.627 160 89 126.836 89 85.9258V74.0742C89 33.1642 121.627 0 161.874 0Z" fill="white"/>
</svg>
