<svg width="37" height="20" viewBox="0 0 37 20" fill="none" xmlns="http://www.w3.org/2000/svg">
<g clip-path="url(#clip0_234_192)">
<path d="M8.71097 12.705C8.91097 11.941 10.312 11.655 11.289 11.941C12.944 12.495 14.688 13.02 16.498 13.505C19.952 14.431 23.274 15.108 26.278 15.532C24.486 18.225 21.424 20 17.947 20C15.966 20 13.873 19.344 12.212 18.208C9.99597 16.691 8.34397 14.106 8.71097 12.705ZM17.947 0C22.47 0 26.292 3.003 27.527 7.124C29.117 7.767 30.544 8.43 31.763 9.088C33.282 9.91 34.498 10.734 35.3 11.518C36.075 12.276 36.581 13.114 36.363 13.928C36.145 14.742 35.288 15.214 34.238 15.483C33.152 15.761 31.686 15.867 29.959 15.819C28.843 15.787 27.607 15.69 26.28 15.529C26.437 15.295 26.584 15.054 26.718 14.806C27.887 14.939 28.992 14.991 29.982 15.019C31.676 15.067 33.057 14.959 34.04 14.708C35.059 14.447 35.495 14.074 35.59 13.721C35.684 13.367 35.493 12.826 34.741 12.09C34.016 11.381 32.873 10.598 31.382 9.792C30.33 9.224 29.113 8.649 27.764 8.086C27.886 8.717 27.947 9.358 27.947 10C27.947 11.74 27.502 13.377 26.72 14.802C23.719 14.458 20.28 13.801 16.677 12.836C14.863 12.35 13.063 11.802 11.29 11.184C9.40497 10.501 7.96097 9.104 8.31097 7.303C8.56197 6.011 9.22697 4.629 10.268 3.419C8.87597 3.244 7.58597 3.139 6.43197 3.107C4.73797 3.059 3.35697 3.166 2.37397 3.418C1.35497 3.679 0.917973 4.052 0.823973 4.405C0.728973 4.758 0.919973 5.3 1.67197 6.035C2.21297 6.563 2.98397 7.133 3.95897 7.721C4.14597 7.817 4.33997 7.921 4.53697 8.032C5.85597 8.772 6.83397 9.535 6.71997 9.737C6.60697 9.939 5.44597 9.503 4.12697 8.764C3.63097 8.486 3.18397 8.204 2.82497 7.951C2.13797 7.495 1.56097 7.045 1.11297 6.607C0.337973 5.849 -0.167027 5.012 0.0509727 4.198C0.268973 3.384 1.12497 2.911 2.17497 2.643C3.26197 2.365 4.72697 2.258 6.45397 2.307C7.79697 2.345 9.31197 2.477 10.951 2.702C12.607 1.134 14.973 0 17.947 0Z" fill="white"/>
</g>
<defs>
<clipPath id="clip0_234_192">
<rect width="36.414" height="20" fill="white"/>
</clipPath>
</defs>
</svg>
