<svg width="94" height="94" viewBox="0 0 94 94" fill="none" xmlns="http://www.w3.org/2000/svg">
<path d="M47 2.75342C71.4363 2.75363 91.2461 22.5641 91.2461 47.0005C91.2459 71.4367 71.4362 91.2464 47 91.2466C22.5636 91.2466 2.75314 71.4368 2.75293 47.0005C2.75293 22.564 22.5635 2.75342 47 2.75342ZM47 8.63428C25.8109 8.63428 8.63379 25.8114 8.63379 47.0005C8.634 68.1894 25.811 85.3667 47 85.3667C68.1888 85.3665 85.366 68.1893 85.3662 47.0005C85.3662 25.8115 68.1889 8.63449 47 8.63428ZM47.6885 63.562C49.3971 64.1371 50.6279 65.7513 50.6279 67.6538C50.6278 69.5561 49.3969 71.1688 47.6885 71.7437V71.9702C47.4544 71.9702 47.2249 71.9504 47.001 71.9146C46.7764 71.9506 46.5462 71.9702 46.3115 71.9702V71.7446C44.6695 71.1924 43.4684 69.6809 43.377 67.8755L43.3711 67.6538L43.377 67.4312C43.4686 65.626 44.6696 64.1134 46.3115 63.561V63.3364C46.5459 63.3364 46.7758 63.3552 47 63.3911C47.2242 63.3552 47.4541 63.3364 47.6885 63.3364V63.562ZM40.5869 23.5942C42.8589 22.4185 45.4109 21.8894 47.9629 22.0659C50.5152 22.2424 52.9699 23.1179 55.0586 24.5952C57.1466 26.0722 58.7892 28.0946 59.8057 30.4419C60.8224 32.7895 61.1748 35.372 60.8232 37.9058C60.4716 40.4392 59.43 42.8288 57.8125 44.811C56.2961 46.6692 54.3278 48.1026 52.1006 48.9771L51.6523 49.145C51.2136 49.3003 50.8263 49.5706 50.5312 49.9263L50.4111 50.0835C50.1044 50.5178 49.9401 51.0365 49.9404 51.5669V55.2622C49.9401 56.8857 48.6235 58.2017 47 58.2017C45.3766 58.2015 44.0608 56.8856 44.0605 55.2622V51.5688C44.0597 49.8215 44.6016 48.1176 45.6094 46.6909V46.6899C46.6181 45.2628 48.0444 44.1837 49.6914 43.6011H49.6924C51.0879 43.1077 52.3212 42.2398 53.2568 41.0933C54.1923 39.9468 54.7954 38.5645 54.999 37.0981C55.2025 35.6321 54.9983 34.1379 54.4102 32.7798V32.7788C53.8222 31.4207 52.8716 30.2498 51.6631 29.395C50.4547 28.5404 49.0344 28.0343 47.5576 27.9321C46.081 27.83 44.6035 28.1357 43.2891 28.8159V28.8169C41.9746 29.4972 40.8721 30.5253 40.1025 31.7896C39.3331 33.054 38.9261 34.5066 38.9258 35.9868C38.9251 37.6102 37.6079 38.9266 35.9844 38.9263C34.4119 38.9258 33.1277 37.6901 33.0488 36.1372L33.0449 35.9858C33.0454 33.4277 33.7502 30.9182 35.0801 28.7329C36.41 26.5478 38.3148 24.77 40.5869 23.5942Z" fill="white"/>
</svg>
