<svg width="94" height="94" viewBox="0 0 94 94" fill="none" xmlns="http://www.w3.org/2000/svg">
<path d="M47.3741 8.27905C48.1203 8.32888 48.8491 8.52774 49.5176 8.86304L49.8467 9.04175L50.1631 9.24194C50.8781 9.72922 51.4704 10.3773 51.8956 11.1345L51.8975 11.1335L87.7442 74.4666H87.7432C88.1693 75.212 88.4211 76.0426 88.4805 76.8962L88.4942 77.2673L88.4835 77.6384C88.4308 78.5011 88.1824 79.3425 87.7549 80.0974C87.2664 80.96 86.5612 81.6799 85.709 82.1863C84.8568 82.6927 83.8868 82.9686 82.8956 82.9851H11.1045C10.1131 82.9686 9.14345 82.6927 8.29107 82.1863C7.43871 81.6799 6.73274 80.9602 6.24419 80.0974C5.75565 79.2346 5.5007 78.2588 5.50493 77.2673L5.51861 76.8962C5.57803 76.0425 5.83071 75.2121 6.25689 74.4666H6.25591L42.1026 11.1335C42.589 10.2672 43.2967 9.54542 44.1534 9.04175L44.4825 8.86304C45.2623 8.47199 46.1242 8.26636 47.0001 8.26636L47.3741 8.27905ZM11.5186 77.1052H82.4815L47.0001 14.4177L11.5186 77.1052Z" fill="white"/>
</svg>
