<svg width="94" height="94" viewBox="0 0 94 94" fill="none" xmlns="http://www.w3.org/2000/svg">
<path d="M85.3594 46.8499C85.3594 36.6745 81.3171 26.915 74.1221 19.72C66.9271 12.5251 57.1683 8.48375 46.9932 8.48364C36.8178 8.48364 27.0583 12.5249 19.8633 19.72C12.6682 26.915 8.62695 36.6745 8.62695 46.8499C8.62706 57.025 12.6684 66.7838 19.8633 73.9788C27.0583 81.1738 36.8178 85.2161 46.9932 85.2161C57.1684 85.216 66.9271 81.1737 74.1221 73.9788C81.317 66.7838 85.3593 57.0251 85.3594 46.8499ZM91.2393 46.8499C91.2392 58.5845 86.577 69.8383 78.2793 78.136C69.9816 86.4337 58.7279 91.0958 46.9932 91.0959C35.2583 91.0959 24.0038 86.4338 15.7061 78.136C7.40843 69.8383 2.7462 58.5845 2.74609 46.8499C2.74609 35.115 7.40827 23.8605 15.7061 15.5627C24.0038 7.26496 35.2583 2.60278 46.9932 2.60278C58.7278 2.60289 69.9816 7.26512 78.2793 15.5627C86.5771 23.8605 91.2393 35.115 91.2393 46.8499Z" fill="white"/>
</svg>
