<svg width="94" height="94" viewBox="0 0 94 94" fill="none" xmlns="http://www.w3.org/2000/svg">
<path d="M88.3066 2.74622C88.3965 2.74623 88.4854 2.751 88.5732 2.75891C88.676 2.76822 88.7784 2.78277 88.8799 2.80286C88.9357 2.8139 88.9903 2.82874 89.0449 2.8429C89.082 2.85248 89.1195 2.86017 89.1562 2.87122C89.211 2.88772 89.2641 2.9083 89.3174 2.92786C89.3548 2.94153 89.3928 2.95363 89.4297 2.96887C89.475 2.98764 89.5184 3.01044 89.5625 3.03137C89.6059 3.05188 89.6499 3.07113 89.6924 3.09387C89.7341 3.11626 89.7739 3.14183 89.8145 3.16614C89.8548 3.19032 89.8961 3.21309 89.9355 3.23938C89.9775 3.26736 90.0172 3.29821 90.0576 3.32825C90.1713 3.41289 90.2825 3.50434 90.3857 3.60754C90.495 3.71682 90.5903 3.8352 90.6787 3.95618C90.7019 3.98792 90.7271 4.01821 90.749 4.0509C90.7793 4.096 90.8055 4.14324 90.833 4.18958C90.8548 4.22633 90.8782 4.26217 90.8984 4.29993C90.9278 4.35486 90.9528 4.41158 90.9785 4.4679C90.9915 4.49635 91.0065 4.52392 91.0186 4.55286C91.0396 4.60319 91.0561 4.65497 91.0742 4.70618C91.0895 4.74938 91.1068 4.79195 91.1201 4.83606C91.1312 4.87279 91.1388 4.91033 91.1484 4.94739C91.1626 5.00202 91.1774 5.05661 91.1885 5.11243C91.2105 5.22365 91.2262 5.33569 91.2354 5.44836C91.2417 5.52699 91.2461 5.6064 91.2461 5.68665V30.4708C91.2459 32.0942 89.93 33.41 88.3066 33.4103C86.6831 33.4103 85.3664 32.0943 85.3662 30.4708V12.7853L12.792 85.3595H30.4785C32.102 85.3597 33.418 86.6764 33.418 88.2999C33.4175 89.9231 32.1018 91.2391 30.4785 91.2394H5.69434L5.54297 91.2355C5.50464 91.2335 5.46664 91.2291 5.42871 91.2257C5.42058 91.225 5.41242 91.2246 5.4043 91.2238C5.37806 91.2212 5.3522 91.2163 5.32617 91.213C5.25365 91.2039 5.18119 91.1943 5.10938 91.1798C5.08634 91.1752 5.06385 91.1684 5.04102 91.1632C4.97025 91.1471 4.89973 91.1299 4.83008 91.1085C4.79732 91.0985 4.76566 91.0855 4.7334 91.0743C4.67876 91.0555 4.62398 91.0369 4.57031 91.0148C4.5251 90.996 4.48154 90.9741 4.4375 90.9532C4.39389 90.9326 4.3494 90.9137 4.30664 90.8907C4.2716 90.872 4.23827 90.8504 4.2041 90.8302C4.15545 90.8015 4.10588 90.774 4.05859 90.7423C4.03365 90.7256 4.01072 90.7061 3.98633 90.6886C3.85696 90.5959 3.73146 90.4943 3.61523 90.3781C3.51321 90.276 3.42276 90.1661 3.33887 90.0538C3.30795 90.0124 3.27581 89.9719 3.24707 89.9288C3.21079 89.8745 3.17875 89.818 3.14648 89.7618C3.13454 89.7411 3.12082 89.7214 3.10938 89.7003L3.08984 89.6661C3.0617 89.6126 3.03828 89.5569 3.01367 89.5021C3.00305 89.4785 2.99048 89.4557 2.98047 89.4318C2.96092 89.3849 2.94475 89.3368 2.92773 89.2892C2.9108 89.2419 2.89247 89.195 2.87793 89.1466C2.86819 89.1141 2.86211 89.0807 2.85352 89.048C2.83823 88.9898 2.82231 88.9317 2.81055 88.8722C2.79985 88.8181 2.7928 88.7636 2.78516 88.7091C2.76646 88.5753 2.75394 88.4389 2.75391 88.2999V63.5157C2.75391 61.892 4.07062 60.5753 5.69434 60.5753C7.31805 60.5753 8.63477 61.892 8.63477 63.5157V81.2003L81.208 8.62708H63.5225C61.8987 8.62708 60.582 7.31036 60.582 5.68665C60.582 4.06293 61.8987 2.74622 63.5225 2.74622H88.3066Z" fill="white"/>
</svg>
