<svg width="94" height="94" viewBox="0 0 94 94" fill="none" xmlns="http://www.w3.org/2000/svg">
<g clip-path="url(#clip0_499_275)">
<path d="M69 -0.94043C70.6237 -0.94043 71.9404 0.376283 71.9404 2C71.9404 3.62372 70.6237 4.94043 69 4.94043H53.8545L64.2422 15.8613C68.2637 19.8902 71.4554 24.67 73.6338 29.9297C75.8167 35.2006 76.9404 40.8505 76.9404 46.5557C76.9404 52.2608 75.8167 57.9107 73.6338 63.1816C71.4651 68.4179 68.2912 73.1777 64.2949 77.1953L53.6064 89.0596H69C70.6237 89.0596 71.9404 90.3763 71.9404 92C71.9404 93.6237 70.6237 94.9404 69 94.9404H47C46.9607 94.9404 46.9217 94.938 46.8828 94.9365C46.8766 94.9363 46.8704 94.9368 46.8643 94.9365C46.7885 94.9331 46.7138 94.9241 46.6396 94.915C46.5972 94.9098 46.555 94.9035 46.5127 94.8965C46.4565 94.8871 46.4008 94.8768 46.3457 94.8643C46.3117 94.8565 46.2779 94.8478 46.2441 94.8389C46.1851 94.8232 46.1268 94.8063 46.0693 94.7871C46.0335 94.7752 45.9984 94.7614 45.9629 94.748C45.9109 94.7284 45.8591 94.709 45.8086 94.6865C45.7714 94.67 45.7349 94.6519 45.6982 94.6338C45.6473 94.6086 45.597 94.5827 45.5479 94.5547C45.5144 94.5356 45.4821 94.5146 45.4492 94.4941C45.4006 94.4638 45.3523 94.4334 45.3057 94.4004C45.2119 94.334 45.1197 94.2633 45.0322 94.1846C44.9379 94.0996 44.8522 94.0078 44.7715 93.9141C44.7419 93.8797 44.7135 93.8444 44.6855 93.8086C44.655 93.7696 44.625 93.7306 44.5967 93.6904C44.5692 93.6515 44.5432 93.6116 44.5176 93.5713C44.492 93.5309 44.4668 93.4906 44.4434 93.4492C44.4208 93.4095 44.3997 93.369 44.3789 93.3281C44.3557 93.2823 44.3332 93.2363 44.3125 93.1895C44.2931 93.1457 44.2751 93.1014 44.2578 93.0566C44.2429 93.0177 44.2281 92.9789 44.2148 92.9395C44.1969 92.8861 44.181 92.832 44.166 92.7773C44.1554 92.7384 44.1448 92.6995 44.1357 92.6602C44.124 92.6092 44.1145 92.5578 44.1055 92.5059C44.0973 92.4588 44.0899 92.4116 44.084 92.3643C44.0692 92.2448 44.0596 92.1234 44.0596 92V69C44.0596 67.3763 45.3763 66.0596 47 66.0596C48.6237 66.0596 49.9404 67.3763 49.9404 69V84.3428L59.9531 73.2295C59.9872 73.1917 60.0227 73.1551 60.0586 73.1191C63.5463 69.6309 66.3136 65.4893 68.2012 60.9316C70.0887 56.3741 71.0595 51.4888 71.0596 46.5557C71.0595 41.6226 70.0887 36.7372 68.2012 32.1797C66.3136 27.6222 63.5462 23.4813 60.0586 19.9932C60.0415 19.976 60.0245 19.958 60.0078 19.9404L49.9404 9.35645V25C49.9404 26.6237 48.6237 27.9404 47 27.9404C45.3763 27.9404 44.0596 26.6237 44.0596 25V2C44.0596 1.9814 44.0602 1.96285 44.0605 1.94434C44.0608 1.93196 44.0611 1.9196 44.0615 1.90723C44.064 1.82859 44.0696 1.75079 44.0781 1.67383C44.0832 1.62835 44.0915 1.58333 44.0986 1.53809C44.1073 1.4833 44.1153 1.42873 44.127 1.375C44.1328 1.34808 44.1409 1.3217 44.1475 1.29492C44.163 1.23184 44.1777 1.16883 44.1973 1.10742C44.2114 1.06281 44.2298 1.0196 44.2461 0.975586C44.2631 0.929794 44.2786 0.883549 44.2979 0.838867C44.3144 0.800396 44.3343 0.763455 44.3525 0.725586C44.3755 0.67801 44.3975 0.630094 44.4229 0.583984C44.4477 0.538801 44.4755 0.495253 44.5029 0.451172C44.5253 0.41523 44.5465 0.378636 44.5703 0.34375C44.6041 0.294229 44.6415 0.247019 44.6787 0.199219C44.6999 0.171896 44.72 0.14373 44.7422 0.117188C44.7944 0.0547264 44.849 -0.00654316 44.9072 -0.0654297C44.9173 -0.0755864 44.9273 -0.0856924 44.9375 -0.0957031C44.9493 -0.107265 44.9616 -0.118474 44.9736 -0.129883C45.0208 -0.174709 45.0689 -0.217701 45.1182 -0.258789C45.1265 -0.265758 45.1351 -0.272419 45.1436 -0.279297C45.188 -0.315536 45.2343 -0.348593 45.2803 -0.381836C45.3202 -0.410731 45.3599 -0.439895 45.4014 -0.466797C45.4389 -0.49116 45.4773 -0.513661 45.5156 -0.536133C45.5606 -0.562511 45.6059 -0.588289 45.6523 -0.612305C45.6915 -0.632545 45.7316 -0.650593 45.7715 -0.668945C45.8195 -0.691078 45.8676 -0.712842 45.917 -0.732422C45.9525 -0.746479 45.9885 -0.758869 46.0244 -0.771484C46.0801 -0.791098 46.1362 -0.809877 46.1934 -0.826172C46.23 -0.836579 46.2668 -0.845535 46.3037 -0.854492C46.3567 -0.867367 46.4098 -0.879685 46.4639 -0.889648C46.5109 -0.898323 46.5582 -0.904766 46.6055 -0.911133C46.6617 -0.918691 46.7182 -0.927315 46.7754 -0.931641C46.7842 -0.932308 46.793 -0.933005 46.8018 -0.933594C46.8673 -0.937958 46.9334 -0.94043 47 -0.94043H69Z" fill="white"/>
</g>
<defs>
<clipPath id="clip0_499_275">
<rect width="94" height="94" fill="white"/>
</clipPath>
</defs>
</svg>
