<svg width="94" height="94" viewBox="0 0 94 94" fill="none" xmlns="http://www.w3.org/2000/svg">
<path d="M71.7834 26.3285V18.0672C71.7834 15.8762 70.913 13.7749 69.3637 12.2257C67.8145 10.6764 65.7132 9.80599 63.5222 9.80599C61.3311 9.80599 59.2298 10.6764 57.6806 12.2257C56.1313 13.7749 55.2609 15.8762 55.2609 18.0672V13.955C55.2609 11.764 54.3905 9.66267 52.8412 8.11339C51.292 6.5641 49.1907 5.69373 46.9997 5.69373C44.8086 5.69373 42.7074 6.5641 41.1581 8.11339C39.6088 9.66267 38.7384 11.764 38.7384 13.955V18.0672C38.7384 15.8762 37.868 13.7749 36.3187 12.2257C34.7695 10.6764 32.6682 9.80599 30.4771 9.80599C28.2861 9.80599 26.1848 10.6764 24.6356 12.2257C23.0863 13.7749 22.2159 15.8762 22.2159 18.0672V30.4775C20.0448 30.4726 17.8941 30.8967 15.8873 31.7253C13.8805 32.5539 12.0572 33.7708 10.5219 35.306C8.98671 36.8412 7.76986 38.6646 6.94124 40.6714C6.11262 42.6782 5.68856 44.8289 5.6934 47C5.73751 55.0728 8.30512 62.9297 13.0367 69.4706L19.095 77.9154C21.3792 81.133 24.4018 83.7559 27.9092 85.5639C31.4166 87.3719 35.3065 88.3123 39.2524 88.3062H60.2544C67.733 88.3062 74.9054 85.3353 80.1936 80.0471C85.4819 74.7589 88.4528 67.5865 88.4528 60.1078V26.3285C88.4528 24.1375 87.5824 22.0362 86.0331 20.4869C84.4838 18.9376 82.3825 18.0672 80.1915 18.0672C78.0005 18.0672 75.8992 18.9376 74.3499 20.4869C72.8006 22.0362 71.9303 24.1375 71.9303 26.3285H71.7834Z" fill="white" stroke="black" stroke-width="5.88" stroke-linecap="round" stroke-linejoin="round"/>
<path d="M22.2158 30.4774V42.8509Z" fill="white"/>
<path d="M22.2158 30.4774V42.8509" stroke="black" stroke-width="5.88" stroke-linecap="round" stroke-linejoin="round"/>
<path d="M38.7383 26.3285V18.0673Z" fill="white"/>
<path d="M38.7383 26.3285V18.0673" stroke="black" stroke-width="5.88" stroke-linecap="round" stroke-linejoin="round"/>
<path d="M55.2607 26.3285V18.0673Z" fill="white"/>
<path d="M55.2607 26.3285V18.0673" stroke="black" stroke-width="5.88" stroke-linecap="round" stroke-linejoin="round"/>
</svg>
