<svg width="94" height="94" viewBox="0 0 94 94" fill="none" xmlns="http://www.w3.org/2000/svg">
<path d="M77.291 2.7533C80.9921 2.7533 84.5421 4.22412 87.1592 6.84119C89.7761 9.45816 91.246 13.0075 91.2461 16.7084C91.2461 20.4095 89.7763 23.9595 87.1592 26.5765C84.5421 29.1936 80.9921 30.6635 77.291 30.6635C74.5959 30.6634 71.9818 29.8829 69.749 28.4486L28.5684 69.9388C29.9261 72.1293 30.663 74.6724 30.6631 77.2914C30.663 80.9923 29.1931 84.5426 26.5762 87.1595C23.9591 89.7765 20.409 91.2465 16.708 91.2465C13.0072 91.2464 9.45777 89.7763 6.84082 87.1595C4.22387 84.5426 2.75306 80.9923 2.75293 77.2914C2.75302 73.5905 4.22399 70.0412 6.84082 67.4242C9.45781 64.8072 13.007 63.3364 16.708 63.3363C19.4985 63.3363 22.2027 64.1724 24.4863 65.7054L65.582 24.2992C64.1277 22.0557 63.3359 19.4229 63.3359 16.7084C63.336 13.0074 64.8068 9.45817 67.4238 6.84119C70.0408 4.2242 73.59 2.75339 77.291 2.7533ZM16.708 69.2172C14.5665 69.2173 12.5123 70.0671 10.998 71.5814C9.48393 73.0957 8.63388 75.15 8.63379 77.2914C8.63392 79.4327 9.48403 81.4871 10.998 83.0013C12.5123 84.5155 14.5666 85.3665 16.708 85.3666C18.8495 85.3666 20.9036 84.5155 22.418 83.0013C23.9322 81.4871 24.7831 79.4328 24.7832 77.2914C24.7831 75.15 23.9321 73.0957 22.418 71.5814C20.9036 70.0673 18.8495 69.2172 16.708 69.2172ZM77.291 8.63416C75.1495 8.63425 73.0953 9.48414 71.5811 10.9984C70.0668 12.5127 69.2169 14.5669 69.2168 16.7084C69.2168 18.8498 70.0669 20.904 71.5811 22.4183C73.0953 23.9326 75.1495 24.7835 77.291 24.7836C79.4326 24.7836 81.4866 23.9327 83.001 22.4183C84.5153 20.904 85.3662 18.85 85.3662 16.7084C85.3661 14.5669 84.5153 12.5127 83.001 10.9984C81.4867 9.48428 79.4325 8.63416 77.291 8.63416Z" fill="white"/>
</svg>
