<svg width="94" height="94" viewBox="0 0 94 94" fill="none" xmlns="http://www.w3.org/2000/svg">
<path d="M6.1748 15.7394C6.1748 18.245 7.17013 20.6479 8.94182 22.4196C10.7135 24.1913 13.1164 25.1866 15.622 25.1866C18.1276 25.1866 20.5305 24.1913 22.3022 22.4196C24.0739 20.6479 25.0692 18.245 25.0692 15.7394C25.0692 13.2339 24.0739 10.831 22.3022 9.05926C20.5305 7.28756 18.1276 6.29224 15.622 6.29224C13.1164 6.29224 10.7135 7.28756 8.94182 9.05926C7.17013 10.831 6.1748 13.2339 6.1748 15.7394Z" stroke="white" stroke-width="5.88" stroke-linecap="round" stroke-linejoin="round"/>
<path d="M6.1748 46.9999C6.1748 49.5055 7.17013 51.9084 8.94182 53.6801C10.7135 55.4518 13.1164 56.4471 15.622 56.4471C18.1276 56.4471 20.5305 55.4518 22.3022 53.6801C24.0739 51.9084 25.0692 49.5055 25.0692 46.9999C25.0692 44.4944 24.0739 42.0914 22.3022 40.3198C20.5305 38.5481 18.1276 37.5527 15.622 37.5527C13.1164 37.5527 10.7135 38.5481 8.94182 40.3198C7.17013 42.0914 6.1748 44.4944 6.1748 46.9999Z" stroke="white" stroke-width="5.88" stroke-linecap="round" stroke-linejoin="round"/>
<path d="M6.1748 78.2607C6.1748 80.7662 7.17013 83.1692 8.94182 84.9408C10.7135 86.7125 13.1164 87.7079 15.622 87.7079C18.1276 87.7079 20.5305 86.7125 22.3022 84.9408C24.0739 83.1692 25.0692 80.7662 25.0692 78.2607C25.0692 75.7551 24.0739 73.3522 22.3022 71.5805C20.5305 69.8088 18.1276 68.8135 15.622 68.8135C13.1164 68.8135 10.7135 69.8088 8.94182 71.5805C7.17013 73.3522 6.1748 75.7551 6.1748 78.2607Z" stroke="white" stroke-width="5.88" stroke-linecap="round" stroke-linejoin="round"/>
<path d="M37.0093 15.7394C37.0093 16.6719 37.193 17.5953 37.5498 18.4569C37.9067 19.3184 38.4297 20.1012 39.0891 20.7606C39.7485 21.42 40.5313 21.943 41.3928 22.2999C42.2544 22.6568 43.1778 22.8404 44.1103 22.8404C45.0428 22.8404 45.9662 22.6568 46.8277 22.2999C47.6893 21.943 48.4721 21.42 49.1315 20.7606C49.7908 20.1012 50.3139 19.3184 50.6708 18.4569C51.0276 17.5953 51.2113 16.6719 51.2113 15.7394C51.2113 14.8069 51.0276 13.8835 50.6708 13.022C50.3139 12.1605 49.7908 11.3777 49.1315 10.7183C48.4721 10.0589 47.6893 9.53582 46.8277 9.17896C45.9662 8.8221 45.0428 8.63843 44.1103 8.63843C43.1778 8.63843 42.2544 8.8221 41.3928 9.17896C40.5313 9.53582 39.7485 10.0589 39.0891 10.7183C38.4297 11.3777 37.9067 12.1605 37.5498 13.022C37.193 13.8835 37.0093 14.8069 37.0093 15.7394Z" stroke="white" stroke-width="5.88" stroke-linecap="round" stroke-linejoin="round"/>
<path d="M37.0093 46.9999C37.0093 47.9324 37.193 48.8558 37.5498 49.7174C37.9067 50.5789 38.4297 51.3617 39.0891 52.0211C39.7485 52.6805 40.5313 53.2035 41.3928 53.5604C42.2544 53.9173 43.1778 54.1009 44.1103 54.1009C45.0428 54.1009 45.9662 53.9173 46.8277 53.5604C47.6893 53.2035 48.4721 52.6805 49.1315 52.0211C49.7908 51.3617 50.3139 50.5789 50.6708 49.7174C51.0276 48.8558 51.2113 47.9324 51.2113 46.9999C51.2113 46.0674 51.0276 45.144 50.6708 44.2825C50.3139 43.421 49.7908 42.6382 49.1315 41.9788C48.4721 41.3194 47.6893 40.7963 46.8277 40.4395C45.9662 40.0826 45.0428 39.8989 44.1103 39.8989C43.1778 39.8989 42.2544 40.0826 41.3928 40.4395C40.5313 40.7963 39.7485 41.3194 39.0891 41.9788C38.4297 42.6382 37.9067 43.421 37.5498 44.2825C37.193 45.144 37.0093 46.0674 37.0093 46.9999Z" stroke="white" stroke-width="5.88" stroke-linecap="round" stroke-linejoin="round"/>
<path d="M37.0093 78.2607C37.0093 79.1932 37.193 80.1166 37.5498 80.9781C37.9067 81.8396 38.4297 82.6224 39.0891 83.2818C39.7485 83.9412 40.5313 84.4643 41.3928 84.8211C42.2544 85.178 43.1778 85.3617 44.1103 85.3617C45.0428 85.3617 45.9662 85.178 46.8277 84.8211C47.6893 84.4643 48.4721 83.9412 49.1315 83.2818C49.7908 82.6224 50.3139 81.8396 50.6708 80.9781C51.0276 80.1166 51.2113 79.1932 51.2113 78.2607C51.2113 77.3282 51.0276 76.4048 50.6708 75.5432C50.3139 74.6817 49.7908 73.8989 49.1315 73.2395C48.4721 72.5801 47.6893 72.0571 46.8277 71.7002C45.9662 71.3433 45.0428 71.1597 44.1103 71.1597C43.1778 71.1597 42.2544 71.3433 41.3928 71.7002C40.5313 72.0571 39.7485 72.5801 39.0891 73.2395C38.4297 73.8989 37.9067 74.6817 37.5498 75.5432C37.193 76.4048 37.0093 77.3282 37.0093 78.2607Z" stroke="white" stroke-width="5.88" stroke-linecap="round" stroke-linejoin="round"/>
<path d="M63.1479 15.7394C63.1479 17.0452 63.6667 18.2976 64.5901 19.221C65.5134 20.1443 66.7658 20.6631 68.0717 20.6631C69.3775 20.6631 70.6299 20.1443 71.5532 19.221C72.4766 18.2976 72.9954 17.0452 72.9954 15.7394C72.9954 14.4335 72.4766 13.1812 71.5532 12.2578C70.6299 11.3344 69.3775 10.8157 68.0717 10.8157C66.7658 10.8157 65.5134 11.3344 64.5901 12.2578C63.6667 13.1812 63.1479 14.4335 63.1479 15.7394Z" stroke="white" stroke-width="5.88" stroke-linecap="round" stroke-linejoin="round"/>
<path d="M63.1479 46.9999C63.1479 48.3057 63.6667 49.5581 64.5901 50.4815C65.5134 51.4048 66.7658 51.9236 68.0717 51.9236C69.3775 51.9236 70.6299 51.4048 71.5532 50.4815C72.4766 49.5581 72.9954 48.3057 72.9954 46.9999C72.9954 45.694 72.4766 44.4417 71.5532 43.5183C70.6299 42.5949 69.3775 42.0762 68.0717 42.0762C66.7658 42.0762 65.5134 42.5949 64.5901 43.5183C63.6667 44.4417 63.1479 45.694 63.1479 46.9999Z" stroke="white" stroke-width="5.88" stroke-linecap="round" stroke-linejoin="round"/>
<path d="M63.1479 78.2606C63.1479 79.5665 63.6667 80.8188 64.5901 81.7422C65.5134 82.6656 66.7658 83.1843 68.0717 83.1843C69.3775 83.1843 70.6299 82.6656 71.5532 81.7422C72.4766 80.8188 72.9954 79.5665 72.9954 78.2606C72.9954 76.9548 72.4766 75.7024 71.5532 74.779C70.6299 73.8557 69.3775 73.3369 68.0717 73.3369C66.7658 73.3369 65.5134 73.8557 64.5901 74.779C63.6667 75.7024 63.1479 76.9548 63.1479 78.2606Z" stroke="white" stroke-width="5.88" stroke-linecap="round" stroke-linejoin="round"/>
<path d="M86.3803 14.2966C85.6581 14.2966 84.9355 15.019 84.9355 15.7414C84.9355 16.4637 85.6581 17.1859 86.3803 17.1859" stroke="white" stroke-width="5.88" stroke-miterlimit="10" stroke-linecap="round" stroke-linejoin="round"/>
<path d="M86.3799 14.2966C87.1025 14.2966 87.8247 15.019 87.8247 15.7414C87.8247 16.4637 87.1025 17.1859 86.3799 17.1859" stroke="white" stroke-width="5.88" stroke-miterlimit="10" stroke-linecap="round" stroke-linejoin="round"/>
<path d="M86.3803 45.5549C85.6581 45.5549 84.9355 46.2775 84.9355 46.9997C84.9355 47.7223 85.6581 48.4445 86.3803 48.4445" stroke="white" stroke-width="5.88" stroke-miterlimit="10" stroke-linecap="round" stroke-linejoin="round"/>
<path d="M86.3799 45.5549C87.1025 45.5549 87.8247 46.2775 87.8247 46.9997C87.8247 47.7223 87.1025 48.4445 86.3799 48.4445" stroke="white" stroke-width="5.88" stroke-miterlimit="10" stroke-linecap="round" stroke-linejoin="round"/>
<path d="M86.3803 76.8142C85.6581 76.8142 84.9355 77.5368 84.9355 78.259C84.9355 78.9812 85.6581 79.7034 86.3803 79.7034" stroke="white" stroke-width="5.88" stroke-miterlimit="10" stroke-linecap="round" stroke-linejoin="round"/>
<path d="M86.3799 76.8142C87.1025 76.8142 87.8247 77.5368 87.8247 78.259C87.8247 78.9812 87.1025 79.7034 86.3799 79.7034" stroke="white" stroke-width="5.88" stroke-miterlimit="10" stroke-linecap="round" stroke-linejoin="round"/>
</svg>
