<svg width="94" height="94" viewBox="0 0 94 94" fill="none" xmlns="http://www.w3.org/2000/svg">
<path d="M41.8301 3.81238C45.0199 2.4454 48.6436 2.4028 51.8604 3.68445L52.1709 3.81238L52.2686 3.85632L85.459 19.5399C85.4787 19.5492 85.4991 19.5595 85.5186 19.5692C88.4694 21.0449 91.1553 24.1292 91.1553 28.3993V64.5077C91.1553 64.5406 91.1537 64.5734 91.1533 64.6063C91.1531 64.6411 91.1529 64.6759 91.1514 64.7108C91.0764 68.2248 89.0658 71.7698 85.4639 73.3641L52.3389 90.1102C52.2837 90.1381 52.2267 90.164 52.1699 90.1884C50.4458 90.9272 48.5949 91.277 46.75 91.2421C46.7121 91.2435 46.674 91.246 46.6357 91.246C46.5255 91.246 46.4167 91.2392 46.3096 91.2274C44.7798 91.1473 43.2612 90.8016 41.8301 90.1884C41.7734 90.164 41.7172 90.1381 41.6621 90.1102L8.4707 73.3319V73.3309C5.57391 71.8775 2.93624 68.8747 2.84863 64.7206C2.84688 64.6824 2.84694 64.6444 2.84668 64.6063C2.84636 64.5735 2.84473 64.5406 2.84473 64.5077V28.0341C2.8448 24.5971 4.77809 20.7277 8.71777 19.4559L41.7324 3.85632L41.8301 3.81238ZM52.3389 45.9764C52.2837 46.0043 52.2268 46.0312 52.1699 46.0555C51.3303 46.4153 50.4606 46.6831 49.5762 46.8593V84.8915C49.6462 84.8649 49.7168 84.8393 49.7861 84.8104L82.877 68.0848L83.0449 68.0067C83.8464 67.6631 84.471 67.0329 84.8535 66.2714L75.9736 62.1766C74.4995 61.4965 73.8554 59.7495 74.5352 58.2753C75.2151 56.801 76.9622 56.1571 78.4365 56.8368L85.2754 59.9911V29.326L52.3389 45.9764ZM8.72559 59.9901L15.5625 56.8368C17.0369 56.1568 18.7838 56.8009 19.4639 58.2753C20.1439 59.7497 19.4998 61.4966 18.0254 62.1766L9.16895 66.2596C9.54023 66.9464 10.1251 67.5217 10.8506 67.9384L11.1123 68.079L11.124 68.0848L43.6953 84.5477V46.6913C43.0619 46.5269 42.4378 46.315 41.8301 46.0546C41.7734 46.0303 41.7171 46.0042 41.6621 45.9764L8.72559 29.328V59.9901ZM34.9238 47.7216C36.3934 47.0317 38.1437 47.6633 38.834 49.1327C39.524 50.6024 38.8925 52.3537 37.4229 53.0438L27.3389 57.7792C25.8694 58.469 24.118 57.8373 23.4277 56.368C22.7377 54.8985 23.3696 53.1473 24.8389 52.4569L34.9238 47.7216ZM55.166 49.1327C55.8563 47.6632 57.6075 47.0315 59.0771 47.7216L69.1611 52.4569C70.6308 53.1471 71.2624 54.8983 70.5723 56.368C69.8819 57.8372 68.1316 58.469 66.6621 57.7792L56.5771 53.0438C55.1078 52.3536 54.4761 50.6022 55.166 49.1327ZM49.5762 15.0135C49.576 16.6371 48.2594 17.953 46.6357 17.953C45.0121 17.953 43.6955 16.6371 43.6953 15.0135V9.43152L12.0156 24.4012L44.2002 40.6718C45.9816 41.4182 48.0135 41.4181 49.7959 40.6727L81.9854 24.4012L49.8193 9.203C49.7389 9.16903 49.6576 9.13725 49.5762 9.10632V15.0135ZM46.6357 22.1112C48.2593 22.1112 49.576 23.4281 49.5762 25.0516V34.2802C49.576 35.9037 48.2594 37.2196 46.6357 37.2196C45.0121 37.2196 43.6955 35.9037 43.6953 34.2802V25.0516C43.6955 23.4281 45.0121 22.1112 46.6357 22.1112Z" fill="white"/>
</svg>
