<svg width="94" height="94" viewBox="0 0 94 94" fill="none" xmlns="http://www.w3.org/2000/svg">
<path d="M77.291 2.74609C78.7628 2.74609 80.2205 3.03708 81.5801 3.60059C82.9395 4.16409 84.1747 4.99024 85.2148 6.03125C86.2549 7.07231 87.0803 8.30805 87.6426 9.66797C88.2045 11.0272 88.4931 12.4843 88.4922 13.9551V16.709C88.4921 18.3325 87.1762 19.6482 85.5527 19.6484C83.9291 19.6484 82.6124 18.3326 82.6123 16.709V13.9521C82.6128 13.2534 82.4759 12.5609 82.209 11.915C81.9419 11.269 81.5498 10.6811 81.0557 10.1865C80.5615 9.69199 79.974 9.29991 79.3281 9.03223C78.6823 8.76461 77.9901 8.62695 77.291 8.62695H49.9404V85.3584H63.5225C65.1461 85.3584 66.4628 86.6752 66.4629 88.2988C66.4629 89.9225 65.1462 91.2393 63.5225 91.2393H30.4775C28.8538 91.2393 27.5371 89.9225 27.5371 88.2988C27.5372 86.6752 28.8539 85.3584 30.4775 85.3584H44.0596V8.62695H16.709C16.0098 8.62695 15.3168 8.76455 14.6709 9.03223C14.0252 9.29987 13.4384 9.69214 12.9443 10.1865C12.4502 10.6811 12.0582 11.269 11.791 11.915C11.524 12.5609 11.3872 13.2533 11.3877 13.9521V16.7012C11.3877 18.3249 10.071 19.6416 8.44727 19.6416C6.82355 19.6416 5.50684 18.3249 5.50684 16.7012V13.9551C5.50593 12.4843 5.79548 11.0272 6.35742 9.66797C6.91968 8.30822 7.74425 7.07221 8.78418 6.03125C9.82441 4.99015 11.0604 4.16409 12.4199 3.60059C13.7795 3.03709 15.2372 2.74609 16.709 2.74609H77.291Z" fill="white"/>
</svg>
