<svg width="94" height="94" viewBox="0 0 94 94" fill="none" xmlns="http://www.w3.org/2000/svg">
<g clip-path="url(#clip0_499_251)">
<path d="M72.0749 0.0596924C73.7199 0.0597555 75.3492 0.384137 76.8688 1.01379C78.3887 1.64362 79.7703 2.56694 80.9333 3.73059L90.2741 13.0724C92.6207 15.4216 93.9392 18.6065 93.9392 21.9269C93.9391 25.2472 92.6206 28.4322 90.2741 30.7814L78.4216 42.6232L66.4138 71.2618C65.7586 73.4219 64.5802 75.3885 62.9812 76.9845C61.3359 78.6264 59.3001 79.8236 57.0651 80.462C57.0482 80.4669 57.0304 80.4712 57.0134 80.4757L7.18232 93.7374L7.18135 93.7355C6.23182 93.9971 5.23018 94.0079 4.27607 93.7609C3.30432 93.5092 2.41751 93.0019 1.70771 92.2921C0.997929 91.5823 0.490618 90.6955 0.238964 89.7238C-0.00812739 88.7694 0.00244804 87.7673 0.264355 86.8175H0.262402L13.5241 37.006L13.5358 36.9611C14.1704 34.7187 15.3673 32.6751 17.0124 31.0245C18.6109 29.4209 20.5824 28.2406 22.7478 27.5861L51.3718 15.5792L63.2155 3.73059C64.3785 2.56692 65.7602 1.64365 67.28 1.01379C68.7998 0.384028 70.4298 0.0597468 72.0749 0.0596924ZM24.8854 33.0656C24.7787 33.1103 24.6686 33.1489 24.5573 33.1808C23.2794 33.5469 22.116 34.2344 21.1774 35.1759C20.239 36.1175 19.556 37.2835 19.194 38.5626L7.55049 82.2902L37.9206 51.921C39.0687 50.7729 40.9307 50.7729 42.0788 51.921C43.2268 53.0692 43.2268 54.9311 42.0788 56.0792L11.7097 86.4474L55.4733 74.7999C56.74 74.4337 57.8944 73.754 58.8278 72.8224C59.767 71.8849 60.453 70.7236 60.82 69.4484L60.8718 69.2853C60.8907 69.2315 60.9112 69.1778 60.9333 69.1251L72.4313 41.7023L52.2956 21.5656L24.8854 33.0656ZM72.0749 5.94055C71.2022 5.94061 70.3372 6.11232 69.531 6.44641C68.7247 6.78056 67.9916 7.27053 67.3747 7.88782L57.3122 17.9532L76.0437 36.6847L86.1159 26.6232C87.3598 25.3767 88.0582 23.6879 88.0583 21.9269C88.0583 20.1652 87.3596 18.4753 86.1149 17.2286L76.7741 7.88782C76.1571 7.27053 75.4241 6.78052 74.6179 6.44641C73.8118 6.11242 72.9475 5.94061 72.0749 5.94055Z" fill="white"/>
</g>
<defs>
<clipPath id="clip0_499_251">
<rect width="94" height="94" fill="white"/>
</clipPath>
</defs>
</svg>
