<svg width="94" height="94" viewBox="0 0 94 94" fill="none" xmlns="http://www.w3.org/2000/svg">
<path d="M84.4482 20.6595C84.4481 14.5248 79.4746 9.55213 73.3398 9.55212H20.6592C14.5246 9.55227 9.55191 14.5249 9.55176 20.6595V73.3402C9.55177 79.475 14.5245 84.4485 20.6592 84.4486H73.3398C79.4747 84.4486 84.4482 79.4751 84.4482 73.3402V20.6595ZM90.3281 73.3402C90.3281 82.7225 82.7221 90.3285 73.3398 90.3285H20.6592C11.277 90.3283 3.67091 82.7224 3.6709 73.3402V20.6595C3.67105 11.2775 11.2771 3.67141 20.6592 3.67126H73.3398C82.7221 3.67127 90.328 11.2774 90.3281 20.6595V73.3402Z" fill="white"/>
</svg>
