<svg width="94" height="94" viewBox="0 0 94 94" fill="none" xmlns="http://www.w3.org/2000/svg">
<path d="M22.2158 2.7533C23.8395 2.7533 25.1562 4.07001 25.1562 5.69373V8.26111H68.8438V5.69373C68.8438 4.07001 70.1605 2.7533 71.7842 2.7533H88.3066C89.9304 2.7533 91.2471 4.07001 91.2471 5.69373V22.2162C91.2471 23.8399 89.9304 25.1566 88.3066 25.1566H85.7393V68.8431H88.3066C89.9303 68.8431 91.2469 70.16 91.2471 71.7836V88.306C91.2471 89.9297 89.9304 91.2465 88.3066 91.2465H71.7842C70.1605 91.2465 68.8438 89.9297 68.8438 88.306V85.7396H25.1562V88.306C25.1562 89.9297 23.8395 91.2465 22.2158 91.2465H5.69336C4.06964 91.2465 2.75293 89.9297 2.75293 88.306V71.7836C2.75306 70.16 4.06972 68.8431 5.69336 68.8431H8.26074V25.1566H5.69336C4.06964 25.1566 2.75293 23.8399 2.75293 22.2162V5.69373C2.75293 4.07001 4.06964 2.7533 5.69336 2.7533H22.2158ZM8.63379 85.3656H19.2754V74.724H8.63379V85.3656ZM74.7246 85.3656H85.3662V74.724H74.7246V85.3656ZM25.1562 22.2162C25.1562 23.8399 23.8395 25.1566 22.2158 25.1566H14.1416V68.8431H22.2158C23.8395 68.8431 25.1561 70.16 25.1562 71.7836V79.8588H68.8438V71.7836C68.8439 70.16 70.1605 68.8431 71.7842 68.8431H79.8584V25.1566H71.7842C70.1605 25.1566 68.8438 23.8399 68.8438 22.2162V14.142H25.1562V22.2162ZM8.63379 19.2758H19.2754V8.63416H8.63379V19.2758ZM74.7246 19.2758H85.3662V8.63416H74.7246V19.2758Z" fill="white"/>
</svg>
