<svg width="94" height="94" viewBox="0 0 94 94" fill="none" xmlns="http://www.w3.org/2000/svg">
<path d="M44.6612 12.5818L8.81471 75.9144C8.57487 76.3296 8.44763 76.8003 8.44558 77.2799C8.44353 77.7594 8.56675 78.2312 8.80303 78.6485C9.03931 79.0658 9.38046 79.4141 9.79273 79.6591C10.205 79.904 10.6741 80.0371 11.1536 80.045H82.8465C83.326 80.0371 83.7951 79.904 84.2074 79.6591C84.6196 79.4141 84.9608 79.0658 85.1971 78.6485C85.4333 78.2312 85.5566 77.7594 85.5545 77.2799C85.5525 76.8003 85.4252 76.3296 85.1854 75.9144L49.3389 12.5818C49.1069 12.165 48.7678 11.8178 48.3566 11.576C47.9454 11.3343 47.477 11.2068 47 11.2068C46.523 11.2068 46.0547 11.3343 45.6435 11.576C45.2323 11.8178 44.8932 12.165 44.6612 12.5818Z" stroke="white" stroke-width="5.88" stroke-linecap="round" stroke-linejoin="round"/>
</svg>
