<svg width="94" height="94" viewBox="0 0 94 94" fill="none" xmlns="http://www.w3.org/2000/svg">
<g clip-path="url(#clip0_284_44)">
<path d="M75.8889 41L53 18.1109L65.2967 5.80917C66.1867 4.91859 67.2435 4.21211 68.4067 3.7301C69.5699 3.24809 70.8166 3 72.0757 3C73.3348 3 74.5815 3.24809 75.7447 3.7301C76.9079 4.21211 77.9647 4.91859 78.8547 5.80917L88.1953 15.1499C89.9912 16.9479 91 19.3852 91 21.9265C91 24.4678 89.9912 26.9052 88.1953 28.7032L75.8889 41Z" stroke="white" stroke-width="5.88" stroke-linecap="round" stroke-linejoin="round"/>
<path d="M76 40.7983L53.2017 18L23.7482 30.3547C21.9889 30.8588 20.3873 31.8037 19.0953 33.0999C17.8033 34.3961 16.8637 36.0008 16.3655 37.7618L3.10363 87.5736C2.97179 88.0345 2.96564 88.5223 3.08581 88.9864C3.20599 89.4504 3.44811 89.8739 3.78709 90.2129C4.12606 90.5519 4.54954 90.794 5.01362 90.9142C5.47769 91.0344 5.96547 91.0282 6.42636 90.8964L56.2576 77.6345C58.0133 77.1331 59.6126 76.1932 60.9049 74.9034C62.1973 73.6135 63.1403 72.0162 63.6453 70.2615L76 40.7983Z" stroke="white" stroke-width="5.88" stroke-linecap="round" stroke-linejoin="round"/>
<path d="M4 90L40 54" stroke="white" stroke-width="5.88" stroke-linecap="round" stroke-linejoin="round"/>
</g>
<defs>
<clipPath id="clip0_284_44">
<rect width="94" height="94" fill="white"/>
</clipPath>
</defs>
</svg>
