<svg width="94" height="94" viewBox="0 0 94 94" fill="none" xmlns="http://www.w3.org/2000/svg">
<path d="M49.1549 27.5967L61.1757 15.5759C62.3238 14.4278 64.1859 14.4278 65.3341 15.5759L75.9407 26.1825C77.0888 27.3306 77.0888 29.1928 75.9407 30.3409C74.7925 31.489 72.9304 31.489 71.7823 30.3409L63.2549 21.8135L53.3133 31.7551C52.1651 32.9033 50.303 32.9033 49.1549 31.7551C48.0067 30.607 48.0067 28.7449 49.1549 27.5967Z" fill="black"/>
<path d="M27.9418 48.8099C29.0899 47.6618 30.9521 47.6618 32.1002 48.8099C33.2483 49.9581 33.2483 51.8202 32.1002 52.9683L22.1586 62.9099L30.686 71.4373C31.8341 72.5855 31.8341 74.4476 30.686 75.5957C29.5378 76.7439 27.6757 76.7439 26.5276 75.5957L15.921 64.9891C14.7728 63.841 14.7728 61.9789 15.921 60.8307L27.9418 48.8099Z" fill="black"/>
<path d="M52.2064 51.4153C54.6111 49.0106 56.5238 46.1614 57.8342 43.0308C59.1446 39.9003 59.8271 36.5507 59.8451 33.1741C59.8452 33.1498 59.8457 33.1253 59.8464 33.101L60.3167 17.566C60.3659 15.9432 61.7211 14.6678 63.344 14.7169C64.9669 14.7661 66.2422 16.1213 66.1931 17.7442L65.7236 33.2715C65.693 37.3977 64.8554 41.4845 63.2577 45.3013C61.6515 49.1383 59.3094 52.6291 56.3648 55.5737C53.4202 58.5182 49.9294 60.8604 46.0924 62.4666C42.2851 64.0603 38.2093 64.896 34.0937 64.9304L18.1686 65.8447C16.5476 65.9376 15.1584 64.6994 15.0653 63.0784C14.9724 61.4574 16.2107 60.0682 17.8316 59.9752L33.8126 59.0588L33.9652 59.054C37.3418 59.0361 40.6921 58.3529 43.8226 57.0425C46.9529 55.732 49.8018 53.8198 52.2064 51.4153Z" fill="black"/>
</svg>
