<svg width="94" height="94" viewBox="0 0 94 94" fill="none" xmlns="http://www.w3.org/2000/svg">
<path d="M35.9851 35.9851C35.9855 33.9658 36.541 31.9854 37.5908 30.2605C38.6406 28.5355 40.1444 27.1323 41.938 26.2043C43.7312 25.2763 45.7455 24.8591 47.7598 24.9984C49.7744 25.1377 51.712 25.8281 53.3605 26.9941C55.0091 28.1601 56.3056 29.7569 57.1078 31.6099C57.9105 33.4629 58.188 35.5008 57.9105 37.501C57.6329 39.5011 56.8112 41.3867 55.5345 42.9512C54.2579 44.5157 52.5755 45.699 50.6718 46.3721C49.5974 46.7521 48.6674 47.4556 48.0098 48.386C47.3522 49.3167 46.9994 50.4282 47.0001 51.5675V55.2612" stroke="white" stroke-width="5.88" stroke-linecap="round" stroke-linejoin="round"/>
<path d="M46.9999 69.0301C46.2395 69.0301 45.623 68.4136 45.623 67.6532C45.623 66.8928 46.2395 66.2764 46.9999 66.2764" stroke="white" stroke-width="5.88"/>
<path d="M47 69.0301C47.7604 69.0301 48.3769 68.4136 48.3769 67.6532C48.3769 66.8928 47.7604 66.2764 47 66.2764" stroke="white" stroke-width="5.88"/>
<path d="M47.0001 88.3063C69.8129 88.3063 88.3063 69.8129 88.3063 47.0001C88.3063 24.1873 69.8129 5.69385 47.0001 5.69385C24.1873 5.69385 5.69385 24.1873 5.69385 47.0001C5.69385 69.8129 24.1873 88.3063 47.0001 88.3063Z" stroke="white" stroke-width="5.88" stroke-miterlimit="10"/>
</svg>
