<svg width="94" height="94" viewBox="0 0 94 94" fill="none" xmlns="http://www.w3.org/2000/svg">
<path d="M9.79722 22.198L42.9882 6.51438C45.5414 5.42017 48.4593 5.42017 51.0122 6.51438L84.2034 22.198C86.3917 23.2922 88.2154 25.4806 88.2154 28.3985V64.5072C88.2154 67.0605 86.7563 69.6134 84.2034 70.7079L51.0122 87.4856C48.4593 88.5798 45.5414 88.5798 42.9882 87.4856L9.79722 70.7079C7.60883 69.6134 5.78516 67.4251 5.78516 64.5072V28.0338C5.78516 25.4806 7.24409 22.9275 9.79722 22.198Z" stroke="white" stroke-width="5.88" stroke-miterlimit="10" stroke-linecap="round" stroke-linejoin="round"/>
<path d="M86.7559 24.3865C86.0263 25.4807 85.2971 26.2102 84.2026 26.5749L51.0118 43.3526C48.4585 44.4468 45.5407 44.4468 42.9878 43.3526L9.79678 26.5749C8.70259 26.2102 7.6084 25.4807 7.24365 24.3865" stroke="white" stroke-width="5.88" stroke-miterlimit="10" stroke-linecap="round" stroke-linejoin="round"/>
<path d="M46.6353 5.78491V15.0132" stroke="white" stroke-width="5.88" stroke-miterlimit="10" stroke-linecap="round" stroke-linejoin="round"/>
<path d="M46.6353 25.0516V34.2799" stroke="white" stroke-width="5.88" stroke-miterlimit="10" stroke-linecap="round" stroke-linejoin="round"/>
<path d="M16.795 59.5065L5.78516 64.584" stroke="white" stroke-width="5.88" stroke-miterlimit="10" stroke-linecap="round" stroke-linejoin="round"/>
<path d="M36.1731 50.3823L26.0889 55.1177" stroke="white" stroke-width="5.88" stroke-miterlimit="10" stroke-linecap="round" stroke-linejoin="round"/>
<path d="M77.2056 59.5065L88.2154 64.584" stroke="white" stroke-width="5.88" stroke-miterlimit="10" stroke-linecap="round" stroke-linejoin="round"/>
<path d="M57.8271 50.3823L67.9114 55.1177" stroke="white" stroke-width="5.88" stroke-miterlimit="10" stroke-linecap="round" stroke-linejoin="round"/>
<path d="M46.6353 45.0496V88.3062" stroke="white" stroke-width="5.88" stroke-miterlimit="10" stroke-linecap="round" stroke-linejoin="round"/>
</svg>
