<svg width="94" height="94" viewBox="0 0 94 94" fill="none" xmlns="http://www.w3.org/2000/svg">
<path d="M41.7128 18.4346C41.2985 18.006 40.8022 17.6651 40.2534 17.4324C39.7046 17.1996 39.1146 17.0796 38.5185 17.0796C37.9224 17.0796 37.3323 17.1996 36.7836 17.4324C36.2348 17.6651 35.7384 18.006 35.3241 18.4346L9.62247 44.1363C7.08661 46.6883 5.66333 50.14 5.66333 53.7377C5.66333 57.3354 7.08661 60.787 9.62247 63.3391L22.4366 76.1532C23.6986 77.4188 25.1979 78.4229 26.8486 79.108C28.4994 79.7932 30.2691 80.1458 32.0564 80.1458C33.8436 80.1458 35.6133 79.7932 37.2641 79.108C38.9148 78.4229 40.4141 77.4188 41.6761 76.1532L62.4945 55.3349L72.2611 54.3435C72.6839 54.2937 73.0842 54.1264 73.4167 53.8605C73.7492 53.5946 74.0004 53.2408 74.1419 52.8393C74.2834 52.4378 74.3094 52.0046 74.2171 51.5891C74.1248 51.1735 73.9178 50.7921 73.6196 50.4883L41.7128 18.4346Z" stroke="white" stroke-width="5.88" stroke-linecap="round" stroke-linejoin="round"/>
<path d="M80.045 61.6868L72.7017 76.3734C71.9119 77.9223 71.6356 79.6823 71.9129 81.3986C72.1901 83.1149 73.0065 84.6984 74.2438 85.9198C75.7928 87.4668 77.8925 88.3358 80.0817 88.3358C82.271 88.3358 84.3707 87.4668 85.9197 85.9198C87.145 84.6898 87.9476 83.1022 88.2115 81.3862C88.4755 79.6703 88.1873 77.9148 87.3883 76.3734L80.045 61.6868Z" stroke="white" stroke-width="5.88" stroke-linecap="round" stroke-linejoin="round"/>
<path d="M15.7908 37.8944V16.7088C15.7908 13.7875 16.9513 10.9858 19.017 8.92007C21.0827 6.85435 23.8844 5.69385 26.8058 5.69385C29.7271 5.69385 32.5288 6.85435 34.5946 8.92007C36.6603 10.9858 37.8208 13.7875 37.8208 16.7088V47.0001" stroke="white" stroke-width="5.88" stroke-linecap="round" stroke-linejoin="round"/>
</svg>
