<svg width="543" height="147" viewBox="0 0 543 147" fill="none" xmlns="http://www.w3.org/2000/svg">
<path d="M50.4389 32.4964L32.6652 32.3763V65.4018H45.7553C46.2357 65.4018 46.2357 65.2817 59.4458 52.0715H60.887L59.8061 69.1246V69.2447L60.887 86.2979H59.4458C46.2357 73.0877 46.2357 73.0877 45.7553 73.0877L32.6652 72.9676V104.672C32.6652 105.272 32.6652 105.272 44.5544 113.319V115H4.08315V113.319C12.6097 105.272 12.6097 105.272 12.6097 104.672L12.4896 35.2585C12.6097 34.658 12.6097 34.658 3.96306 26.6118V24.9305L69.0533 24.8104V27.4525L70.3743 49.7897H68.4528C51.0394 32.4964 51.0394 32.4964 50.4389 32.4964ZM94.9904 44.986C88.1452 44.986 83.2214 39.7019 83.2214 33.337C83.2214 27.2123 88.1452 21.9282 94.9904 21.9282C101.716 21.9282 106.519 27.2123 106.519 33.337C106.519 39.7019 101.716 44.986 94.9904 44.986ZM80.099 115V113.199C86.8241 106.954 86.8241 106.954 86.8241 106.353V66.2424C86.8241 65.6419 86.8241 65.6419 79.7387 60.1177V58.4364L104.238 50.2701H105.318V106.353C105.318 106.954 105.318 106.954 111.923 113.199V115H80.099ZM160.065 105.032C175.076 105.032 184.924 108.995 184.924 121.725C184.924 136.136 169.912 146.704 145.894 146.704C127.76 146.704 118.993 140.82 118.993 132.654C118.993 126.529 122.596 122.085 129.441 119.083C125.838 117.042 123.797 113.799 123.797 108.755C123.797 102.27 127.399 97.2263 134.845 93.5034C126.319 89.7806 121.155 82.6951 121.155 74.2886C121.155 60.1177 133.404 50.2701 151.538 50.2701C158.263 50.2701 164.148 51.7112 168.711 54.2331C172.314 47.1477 177.238 42.2239 182.762 39.4618L187.446 57.2355H173.035C177.478 61.0784 179.88 66.1223 179.88 71.8868C179.88 86.418 167.631 96.2656 149.376 96.2656C145.533 96.2656 141.931 95.7852 138.808 94.8244C137.487 96.5057 136.767 98.187 136.767 99.9884C136.767 103.831 139.889 105.032 144.693 105.032H160.065ZM149.136 57.8359C142.891 57.8359 140.129 63.6004 140.129 71.0461C140.129 80.2932 143.972 88.5796 152.018 88.5796C158.143 88.5796 161.025 82.9353 161.025 75.2493C161.025 66.3625 157.182 57.8359 149.136 57.8359ZM150.697 139.139C162.106 139.139 168.111 135.296 168.111 129.291C168.111 124.247 164.388 121.605 154.54 121.605H142.171C138.808 121.605 135.806 121.245 133.164 120.644C132.323 122.686 131.963 124.968 131.963 127.249C131.963 134.455 137.607 139.139 150.697 139.139Z" fill="white"/>
<path d="M241.317 116.599C217.178 116.599 198.084 101.348 198.084 72.4052C198.084 42.1418 219.46 23.1672 243.959 23.1672C262.333 23.1672 271.7 30.3728 271.7 41.7816C271.7 47.0656 267.257 51.389 261.493 51.389C255.848 51.389 251.285 46.9455 251.285 41.4213C251.285 37.6984 252.726 35.1765 255.728 32.0541C253.566 31.2134 249.964 30.613 247.202 30.4929C230.028 29.6522 213.215 40.4606 213.215 65.1996C213.215 92.5807 227.266 105.19 245.64 105.19C259.211 105.19 267.257 99.7863 272.901 93.4214L273.622 94.5022C270.86 106.151 258.61 116.599 241.317 116.599ZM303.009 19.5644H303.249L303.009 19.6845V19.5644ZM303.009 106.632C303.009 107.232 303.009 107.232 310.695 113.837V114.918H282.353V113.837C290.039 107.232 290.039 107.232 290.039 106.632V36.2573C290.039 35.6568 290.039 35.6568 281.633 29.412V28.4513L303.009 19.6845V106.632ZM378.298 110.234V111.315L356.921 116.599V104.23C352.238 112.636 344.912 116.599 335.785 116.599C326.418 116.599 319.332 109.514 319.332 100.026C319.332 91.8602 323.896 87.0565 340.228 82.3729L356.921 77.6893V73.8463C356.921 63.038 350.556 58.5945 339.988 58.5945C336.145 58.5945 333.383 59.3151 330.981 60.3959C334.944 61.2366 336.505 64.7193 336.505 67.9618C336.505 72.0449 333.743 75.4075 328.82 75.4075C324.616 75.4075 321.374 72.165 321.374 67.3613C321.374 57.874 333.743 51.0287 346.833 51.0287C361.004 51.0287 369.891 57.5137 369.891 72.2851V104.83C369.891 105.431 369.891 105.431 378.298 110.234ZM341.79 106.752C346.353 106.752 351.397 105.311 356.921 100.267V82.7331L346.473 87.0565C335.184 91.7401 333.023 94.3821 333.023 99.0657C333.023 103.869 335.905 106.752 341.79 106.752ZM449.561 106.632C449.561 107.232 449.561 107.232 457.247 113.837V114.918H428.905V113.837C436.591 107.232 436.591 107.232 436.591 106.632V76.9687C436.591 67.4814 432.508 61.3567 422.781 61.3567C418.217 61.3567 413.293 62.1973 408.61 64.7193V106.632C408.61 107.232 408.61 107.232 416.296 113.837V114.918H387.954V113.837C395.64 107.232 395.64 107.232 395.64 106.632V67.7216C395.64 67.1211 395.64 67.1211 387.233 60.8763V59.9156L408.61 51.1488V60.516C413.414 54.6315 421.099 51.0287 429.746 51.0287C441.755 51.0287 449.561 58.8347 449.561 73.7262V106.632ZM408.61 51.0287H408.85L408.61 51.1488V51.0287ZM485.963 19.5644H486.203L485.963 19.6845V19.5644ZM524.032 105.911C524.272 106.151 525.713 107.712 531.598 113.717V114.918H513.944L485.963 81.5322V106.632C485.963 107.232 485.963 107.232 491.847 113.837V114.918H465.307V113.837C472.993 107.232 472.993 107.232 472.993 106.632V36.2573C472.993 35.6568 472.993 35.6568 464.586 29.412V28.4513L485.963 19.6845V80.6916L494.97 72.7655L509.02 60.8763C509.501 60.516 504.577 54.1511 504.217 53.6707V52.71H530.397V53.7908L518.988 61.5968L498.692 76.9687L524.032 105.911Z" fill="white"/>
</svg>
