<svg width="94" height="94" viewBox="0 0 94 94" fill="none" xmlns="http://www.w3.org/2000/svg">
<path d="M20.3807 55.2612H84.6348C84.6348 55.2612 88.3065 55.2612 88.3065 58.9329V73.6857C88.3065 73.6857 88.3065 77.3573 84.6348 77.3573H20.3807C20.3807 77.3573 16.709 77.3573 16.709 73.6857V58.9329C16.709 58.9329 16.709 55.2612 20.3807 55.2612Z" fill="white" stroke="white" stroke-width="5.88" stroke-linecap="round" stroke-linejoin="round"/>
<path d="M20.3807 16.6426H54.3436C54.3436 16.6426 58.0152 16.6426 58.0152 20.3142V35.067C58.0152 35.067 58.0152 38.7387 54.3436 38.7387H20.3807C20.3807 38.7387 16.709 38.7387 16.709 35.067V20.3142C16.709 20.3142 16.709 16.6426 20.3807 16.6426Z" fill="white" stroke="white" stroke-width="5.88" stroke-linecap="round" stroke-linejoin="round"/>
<path d="M5.69385 5.69385V88.3063" stroke="white" stroke-width="5.88" stroke-linecap="round" stroke-linejoin="round"/>
</svg>
