<svg width="94" height="94" viewBox="0 0 94 94" fill="none" xmlns="http://www.w3.org/2000/svg">
<path d="M85.4678 82.7988C85.4678 84.2595 84.8876 85.6604 83.8547 86.6932C82.8219 87.7261 81.421 88.3063 79.9603 88.3063H14.0392C12.5786 88.3063 11.1777 87.7261 10.1448 86.6932C9.11199 85.6604 8.53174 84.2595 8.53174 82.7988V11.2013C8.53174 9.74067 9.11199 8.33981 10.1448 7.30696C11.1777 6.2741 12.5786 5.69385 14.0392 5.69385H69.1142C70.5506 5.69399 71.93 6.25526 72.9585 7.25798L83.8083 17.8434C84.3339 18.3567 84.7516 18.9701 85.0366 19.6473C85.3216 20.3246 85.4682 21.052 85.4678 21.7868V82.7988Z" stroke="white" stroke-width="5.88" stroke-linecap="round" stroke-linejoin="round"/>
<path d="M25.0547 30.4776C25.0547 32.6686 25.9251 34.7699 27.4744 36.3191C29.0236 37.8684 31.1249 38.7388 33.3159 38.7388C35.507 38.7388 37.6082 37.8684 39.1575 36.3191C40.7068 34.7699 41.5772 32.6686 41.5772 30.4776C41.5772 28.2865 40.7068 26.1853 39.1575 24.636C37.6082 23.0867 35.507 22.2163 33.3159 22.2163C31.1249 22.2163 29.0236 23.0867 27.4744 24.636C25.9251 26.1853 25.0547 28.2865 25.0547 30.4776Z" stroke="white" stroke-width="5.88" stroke-linecap="round" stroke-linejoin="round"/>
<path d="M72.0151 69.7643L57.6039 48.1455C57.269 47.6418 56.8162 47.2275 56.2848 46.9387C55.7534 46.65 55.1594 46.4954 54.5546 46.4885C53.9498 46.4816 53.3525 46.6227 52.8147 46.8993C52.2768 47.1759 51.8147 47.5798 51.4685 48.0757L41.588 62.1933L35.4637 57.2806C35.0617 56.9585 34.597 56.7235 34.0993 56.5907C33.6015 56.4579 33.0816 56.4302 32.5725 56.5093C32.0635 56.5883 31.5765 56.7725 31.1425 57.0501C30.7085 57.3276 30.337 57.6925 30.0517 58.1214L22.3008 69.7643" stroke="white" stroke-width="5.88" stroke-linecap="round" stroke-linejoin="round"/>
</svg>
