<svg width="94" height="94" viewBox="0 0 94 94" fill="none" xmlns="http://www.w3.org/2000/svg">
<g clip-path="url(#clip0_251_227)">
<path d="M88.1251 67.5624H86.8326C86.5963 67.5632 86.3683 67.475 86.1941 67.3154C86.0199 67.1557 85.9123 66.9363 85.8926 66.7008C84.9055 58.6511 81.444 51.1063 75.9858 45.1079C70.5276 39.1095 63.342 34.9534 55.4209 33.2133C55.2734 33.1634 55.1453 33.0686 55.0545 32.9421C54.9638 32.8157 54.915 32.6639 54.915 32.5083C54.915 32.3526 54.9638 32.2009 55.0545 32.0744C55.1453 31.9479 55.2734 31.8531 55.4209 31.8033C56.4232 31.3111 57.2669 30.5469 57.8555 29.5981C58.4442 28.6493 58.7542 27.554 58.7501 26.4374V25.4583C58.7501 25.3297 58.7754 25.2023 58.8246 25.0835C58.8738 24.9648 58.9459 24.8568 59.0369 24.7659C59.1278 24.675 59.2357 24.6028 59.3545 24.5536C59.4733 24.5044 59.6007 24.4791 59.7292 24.4791H64.1551C64.3703 24.4878 64.5773 24.5645 64.7462 24.6982C64.9151 24.8319 65.0372 25.0157 65.0951 25.2233C65.978 28.5895 68.0306 31.5315 70.8852 33.5221C73.7398 35.5128 77.2098 36.4221 80.6738 36.0872C84.1378 35.7523 87.3694 34.195 89.7897 31.6943C92.21 29.1937 93.661 25.913 93.8827 22.4399C94.1044 18.9669 93.0823 15.5283 90.9995 12.7402C88.9168 9.95215 85.9094 7.99666 82.5161 7.22405C79.1228 6.45143 75.5653 6.91218 72.4808 8.52374C69.3963 10.1353 66.9863 12.7924 65.6826 16.0191C65.617 16.2047 65.4947 16.3651 65.3331 16.4775C65.1715 16.59 64.9786 16.6488 64.7817 16.6458H59.7292C59.4695 16.6458 59.2205 16.5426 59.0369 16.359C58.8532 16.1753 58.7501 15.9263 58.7501 15.6666V14.6874C58.7501 13.1293 58.1311 11.635 57.0293 10.5332C55.9275 9.4314 54.4332 8.81243 52.8751 8.81243H41.1251C39.5669 8.81243 38.0726 9.4314 36.9708 10.5332C35.869 11.635 35.2501 13.1293 35.2501 14.6874V15.6666C35.2501 15.9263 35.1469 16.1753 34.9633 16.359C34.7796 16.5426 34.5306 16.6458 34.2709 16.6458H29.2184C29.0215 16.6488 28.8287 16.59 28.667 16.4775C28.5054 16.3651 28.3832 16.2047 28.3176 16.0191C27.0117 12.7708 24.5913 10.0939 21.4905 8.4686C18.3897 6.84328 14.8112 6.37582 11.3969 7.15005C7.98264 7.92428 4.95585 9.88955 2.85938 12.6934C0.762911 15.4973 -0.266086 18.9563 -0.0430735 22.4502C0.179939 25.944 1.64037 29.2442 4.07631 31.7587C6.51226 34.2733 9.76435 35.8378 13.2494 36.1716C16.7344 36.5055 20.2244 35.5869 23.0934 33.5805C25.9624 31.5741 28.0228 28.6112 28.9051 25.2233C28.9629 25.0157 29.085 24.8319 29.2539 24.6982C29.4229 24.5645 29.6298 24.4878 29.8451 24.4791H34.2709C34.5306 24.4791 34.7796 24.5823 34.9633 24.7659C35.1469 24.9495 35.2501 25.1986 35.2501 25.4583V26.4374C35.2565 27.5666 35.584 28.6707 36.1943 29.6208C36.8046 30.5709 37.6725 31.3278 38.6967 31.8033C38.8442 31.8531 38.9723 31.9479 39.0631 32.0744C39.1538 32.2009 39.2027 32.3526 39.2027 32.5083C39.2027 32.6639 39.1538 32.8157 39.0631 32.9421C38.9723 33.0686 38.8442 33.1634 38.6967 33.2133C30.771 34.9249 23.5719 39.0543 18.0929 45.0314C12.6138 51.0086 9.12489 58.5389 8.10757 66.5833C8.08788 66.8187 7.98021 67.0382 7.80602 67.1979C7.63182 67.3575 7.40387 67.4457 7.16757 67.4449H5.87507C4.8363 67.4449 3.84008 67.8576 3.10557 68.5921C2.37105 69.3266 1.9584 70.3228 1.9584 71.3616V83.1116C1.9584 84.1504 2.37105 85.1466 3.10557 85.8811C3.84008 86.6156 4.8363 87.0283 5.87507 87.0283H17.6251C18.6638 87.0283 19.6601 86.6156 20.3946 85.8811C21.1291 85.1466 21.5417 84.1504 21.5417 83.1116V71.3616C21.5417 70.3228 21.1291 69.3266 20.3946 68.5921C19.6601 67.8576 18.6638 67.4449 17.6251 67.4449H17.0376C16.8954 67.4437 16.7551 67.4116 16.6266 67.3507C16.4981 67.2898 16.3844 67.2017 16.2934 67.0924C16.1651 66.9506 16.0831 66.7729 16.0584 66.5833C17.2333 59.2223 20.9939 52.5214 26.665 47.6837C32.336 42.8461 39.546 40.1887 47.0001 40.1887C54.4542 40.1887 61.6641 42.8461 67.3352 47.6837C73.0062 52.5214 76.7668 59.2223 77.9417 66.5833C77.9641 66.7231 77.9546 66.8662 77.9139 67.0018C77.8732 67.1375 77.8024 67.2622 77.7067 67.3666C77.6157 67.4759 77.502 67.564 77.3735 67.6249C77.245 67.6857 77.1048 67.7179 76.9626 67.7191H76.3751C75.3363 67.7191 74.3401 68.1317 73.6056 68.8663C72.8711 69.6008 72.4584 70.597 72.4584 71.6358V83.3858C72.4584 84.4245 72.8711 85.4207 73.6056 86.1553C74.3401 86.8898 75.3363 87.3024 76.3751 87.3024H88.1251C89.1638 87.3024 90.1601 86.8898 90.8946 86.1553C91.6291 85.4207 92.0417 84.4245 92.0417 83.3858V71.6358C92.0628 71.1084 91.9772 70.5822 91.7898 70.0888C91.6024 69.5953 91.3173 69.1449 90.9515 68.7644C90.5856 68.384 90.1467 68.0814 89.661 67.8748C89.1753 67.6683 88.6529 67.562 88.1251 67.5624ZM79.3126 14.6874C80.6682 14.6874 81.9934 15.0894 83.1205 15.8426C84.2477 16.5957 85.1262 17.6662 85.645 18.9186C86.1638 20.1711 86.2995 21.5492 86.035 22.8788C85.7706 24.2084 85.1178 25.4296 84.1592 26.3882C83.2006 27.3468 81.9793 27.9996 80.6497 28.2641C79.3202 28.5285 77.942 28.3928 76.6896 27.874C75.4372 27.3552 74.3667 26.4767 73.6135 25.3496C72.8604 24.2224 72.4584 22.8972 72.4584 21.5416C72.4687 19.7269 73.1941 17.9895 74.4773 16.7063C75.7605 15.4231 77.4979 14.6977 79.3126 14.6874ZM14.6876 28.3958C13.3319 28.3958 12.0068 27.9938 10.8796 27.2406C9.75243 26.4875 8.87392 25.417 8.35514 24.1646C7.83637 22.9121 7.70063 21.534 7.9651 20.2044C8.22957 18.8748 8.88237 17.6535 9.84094 16.695C10.7995 15.7364 12.0208 15.0836 13.3504 14.8191C14.68 14.5547 16.0581 14.6904 17.3105 15.2092C18.563 15.7279 19.6335 16.6065 20.3866 17.7336C21.1397 18.8608 21.5417 20.186 21.5417 21.5416C21.5315 23.3563 20.806 25.0937 19.5228 26.3769C18.2397 27.66 16.5022 28.3855 14.6876 28.3958ZM50.9167 23.4999C50.9167 23.7596 50.8136 24.0087 50.6299 24.1923C50.4463 24.3759 50.1973 24.4791 49.9376 24.4791H44.0626C43.934 24.4791 43.8067 24.4538 43.6879 24.4046C43.5691 24.3554 43.4611 24.2832 43.3702 24.1923C43.2793 24.1014 43.2071 23.9934 43.1579 23.8746C43.1087 23.7558 43.0834 23.6285 43.0834 23.4999V17.6249C43.0834 17.4963 43.1087 17.369 43.1579 17.2502C43.2071 17.1314 43.2793 17.0235 43.3702 16.9326C43.4611 16.8416 43.5691 16.7695 43.6879 16.7203C43.8067 16.6711 43.934 16.6458 44.0626 16.6458H49.9376C50.0662 16.6458 50.1935 16.6711 50.3123 16.7203C50.4311 16.7695 50.539 16.8416 50.6299 16.9326C50.7209 17.0235 50.793 17.1314 50.8422 17.2502C50.8914 17.369 50.9167 17.4963 50.9167 17.6249V23.4999Z" fill="white"/>
</g>
<defs>
<clipPath id="clip0_251_227">
<rect width="94" height="94" fill="white"/>
</clipPath>
</defs>
</svg>
