<svg width="94" height="94" viewBox="0 0 94 94" fill="none" xmlns="http://www.w3.org/2000/svg">
<path d="M9.38749 9.39844H44.2683C45.2421 9.39844 46.176 9.78527 46.8646 10.4738C47.5532 11.1624 47.94 12.0963 47.94 13.0701V84.6015H9.38749C8.4137 84.6015 7.4798 84.2147 6.79123 83.5261C6.10266 82.8375 5.71582 81.9036 5.71582 80.9298V13.0701C5.71582 12.0963 6.10266 11.1624 6.79123 10.4738C7.4798 9.78527 8.4137 9.39844 9.38749 9.39844Z" stroke="white" stroke-width="5.88" stroke-linecap="round" stroke-linejoin="round"/>
<path d="M47.9478 84.6015L87.7046 49.0487C87.9694 48.8132 88.1554 48.502 88.2375 48.1572C88.3196 47.8124 88.2938 47.4507 88.1635 47.1211C88.0262 46.7922 87.7939 46.5116 87.4963 46.3154C87.1987 46.1192 86.8494 46.0162 86.4929 46.0196H47.9404" stroke="white" stroke-width="5.88" stroke-linecap="round" stroke-linejoin="round"/>
<path d="M57.8936 45.9536L75.2716 60.1116" stroke="white" stroke-width="5.88" stroke-linecap="round" stroke-linejoin="round"/>
<path d="M47.9473 57.5046L63.7832 70.4069" stroke="white" stroke-width="5.88" stroke-linecap="round" stroke-linejoin="round"/>
</svg>
