<svg width="94" height="94" viewBox="0 0 94 94" fill="none" xmlns="http://www.w3.org/2000/svg">
<path d="M9.36551 5.69385H84.6347C84.6347 5.69385 88.3063 5.69385 88.3063 9.36551V84.6347C88.3063 84.6347 88.3063 88.3063 84.6347 88.3063H9.36551C9.36551 88.3063 5.69385 88.3063 5.69385 84.6347V9.36551C5.69385 9.36551 5.69385 5.69385 9.36551 5.69385Z" stroke="white" stroke-width="5.88" stroke-linecap="round" stroke-linejoin="round"/>
<path d="M48.1238 19.9764C47.9859 19.8127 47.8139 19.681 47.6198 19.5907C47.4258 19.5004 47.2143 19.4536 47.0002 19.4536C46.7862 19.4536 46.5747 19.5004 46.3806 19.5907C46.1866 19.681 46.0146 19.8127 45.8767 19.9764L22.6791 45.7515C22.3808 46.099 22.2168 46.5419 22.2168 46.9999C22.2168 47.4579 22.3808 47.9007 22.6791 48.2482L45.8767 74.0233C46.0146 74.1871 46.1866 74.3187 46.3806 74.409C46.5747 74.4994 46.7862 74.5462 47.0002 74.5462C47.2143 74.5462 47.4258 74.4994 47.6198 74.409C47.8139 74.3187 47.9859 74.1871 48.1238 74.0233L71.3214 48.2482C71.6197 47.9007 71.7837 47.4579 71.7837 46.9999C71.7837 46.5419 71.6197 46.099 71.3214 45.7515L48.1238 19.9764Z" stroke="white" stroke-width="5.88" stroke-linecap="round" stroke-linejoin="round"/>
</svg>
