<svg width="94" height="94" viewBox="0 0 94 94" fill="none" xmlns="http://www.w3.org/2000/svg">
<path d="M88.3248 30.4774V11.1901C88.3248 9.72944 87.7445 8.32858 86.7117 7.29573C85.6788 6.26287 84.2779 5.68262 82.8173 5.68262H63.541" stroke="white" stroke-width="5.88" stroke-linecap="round" stroke-linejoin="round"/>
<path d="M63.541 88.2952H82.8173C84.2779 88.2952 85.6788 87.7149 86.7117 86.6821C87.7445 85.6492 88.3248 84.2484 88.3248 82.7877V63.5225" stroke="white" stroke-width="5.88" stroke-linecap="round" stroke-linejoin="round"/>
<path d="M5.71191 63.5225V82.7987C5.71191 84.2594 6.29217 85.6602 7.32502 86.6931C8.35788 87.726 9.75873 88.3062 11.2194 88.3062H30.4957" stroke="white" stroke-width="5.88" stroke-linecap="round" stroke-linejoin="round"/>
<path d="M30.4957 5.68262H11.2194C9.75873 5.68262 8.35788 6.26287 7.32502 7.29573C6.29217 8.32858 5.71191 9.72944 5.71191 11.1901V30.4774" stroke="white" stroke-width="5.88" stroke-linecap="round" stroke-linejoin="round"/>
</svg>
