<svg width="94" height="94" viewBox="0 0 94 94" fill="none" xmlns="http://www.w3.org/2000/svg">
<path d="M16.7088 47H5.69385" stroke="white" stroke-width="5.88" stroke-linecap="round" stroke-linejoin="round"/>
<path d="M55.2613 47H38.7388" stroke="white" stroke-width="5.88" stroke-linecap="round" stroke-linejoin="round"/>
<path d="M88.306 47H77.291" stroke="white" stroke-width="5.88" stroke-linecap="round" stroke-linejoin="round"/>
<path d="M38.739 14.8728V79.127C38.739 79.127 38.739 82.7987 35.0673 82.7987H20.3807C20.3807 82.7987 16.709 82.7987 16.709 79.127V14.8728C16.709 14.8728 16.709 11.2012 20.3807 11.2012H35.0673C35.0673 11.2012 38.739 11.2012 38.739 14.8728Z" fill="white" stroke="white" stroke-width="5.88" stroke-linecap="round" stroke-linejoin="round"/>
<path d="M77.2912 25.888V68.1121C77.2912 68.1121 77.2912 71.7838 73.6196 71.7838H58.9329C58.9329 71.7838 55.2612 71.7838 55.2612 68.1121V25.888C55.2612 25.888 55.2612 22.2163 58.9329 22.2163H73.6196C73.6196 22.2163 77.2912 22.2163 77.2912 25.888Z" fill="white" stroke="white" stroke-width="5.88" stroke-linecap="round" stroke-linejoin="round"/>
</svg>
