<svg width="94" height="94" viewBox="0 0 94 94" fill="none" xmlns="http://www.w3.org/2000/svg">
<path d="M39.9574 37.8207C38.4211 36.0928 36.5371 34.7089 34.4288 33.7598C32.3205 32.8107 30.0355 32.3177 27.7234 32.3132H22.2159C17.8338 32.3132 13.6313 34.054 10.5327 37.1526C7.43412 40.2511 5.69336 44.4537 5.69336 48.8357C5.69336 53.2178 7.43412 57.4203 10.5327 60.5189C13.6313 63.6175 17.8338 65.3582 22.2159 65.3582H27.7234C30.0353 65.3528 32.3201 64.8595 34.4283 63.9104C36.5364 62.9613 38.4205 61.578 39.9574 59.8507" stroke="white" stroke-width="5.88" stroke-linecap="round" stroke-linejoin="round"/>
<path d="M54.042 37.8207C55.5781 36.0926 57.462 34.7086 59.5704 33.7595C61.6787 32.8103 63.9639 32.3175 66.276 32.3132H71.7835C73.9533 32.3132 76.1018 32.7406 78.1064 33.5709C80.111 34.4013 81.9324 35.6183 83.4667 37.1526C85.0009 38.6868 86.218 40.5082 87.0483 42.5128C87.8786 44.5174 88.306 46.666 88.306 48.8357C88.306 51.0055 87.8786 53.154 87.0483 55.1586C86.218 57.1632 85.0009 58.9846 83.4667 60.5189C81.9324 62.0532 80.111 63.2702 78.1064 64.1005C76.1018 64.9309 73.9533 65.3582 71.7835 65.3582H66.276C63.964 65.3533 61.6791 64.8601 59.5708 63.911C57.4626 62.962 55.5785 61.5783 54.042 59.8507" stroke="white" stroke-width="5.88" stroke-linecap="round" stroke-linejoin="round"/>
<path d="M27.7236 48.8323H66.2761" stroke="white" stroke-width="5.88" stroke-linecap="round" stroke-linejoin="round"/>
</svg>
