<svg width="94" height="94" viewBox="0 0 94 94" fill="none" xmlns="http://www.w3.org/2000/svg">
<path d="M8.44751 16.7015V13.9551C8.44655 12.8696 8.65952 11.7946 9.07425 10.7914C9.48899 9.78827 10.0974 8.87669 10.8646 8.10878C11.6318 7.34088 12.5428 6.7317 13.5456 6.31608C14.5484 5.90045 15.6233 5.68652 16.7088 5.68652H77.2913C78.3768 5.68652 79.4516 5.90045 80.4544 6.31608C81.4572 6.7317 82.3682 7.34088 83.1354 8.10878C83.9027 8.87669 84.511 9.78827 84.9258 10.7914C85.3405 11.7946 85.5535 12.8696 85.5525 13.9551V16.7089" stroke="white" stroke-width="5.88" stroke-linecap="round" stroke-linejoin="round"/>
<path d="M47 5.68652V88.299" stroke="white" stroke-width="5.88" stroke-linecap="round" stroke-linejoin="round"/>
<path d="M30.4775 88.2988H63.5225" stroke="white" stroke-width="5.88" stroke-linecap="round" stroke-linejoin="round"/>
</svg>
