<svg width="94" height="94" viewBox="0 0 94 94" fill="none" xmlns="http://www.w3.org/2000/svg">
<path d="M11.2013 5.69385H66.2763C66.2763 5.69385 71.7838 5.69385 71.7838 11.2013V66.2763C71.7838 66.2763 71.7838 71.7838 66.2763 71.7838H11.2013C11.2013 71.7838 5.69385 71.7838 5.69385 66.2763V11.2013C5.69385 11.2013 5.69385 5.69385 11.2013 5.69385Z" stroke="white" stroke-width="5.88" stroke-linecap="round" stroke-linejoin="round"/>
<path d="M82.7988 22.2163C84.2595 22.2163 85.6603 22.7966 86.6932 23.8294C87.7261 24.8623 88.3063 26.2631 88.3063 27.7238V82.7988C88.3063 84.2595 87.7261 85.6603 86.6932 86.6932C85.6603 87.7261 84.2595 88.3063 82.7988 88.3063H27.7238C26.2631 88.3063 24.8623 87.7261 23.8294 86.6932C22.7966 85.6603 22.2163 84.2595 22.2163 82.7988" stroke="white" stroke-width="5.88" stroke-linecap="round" stroke-linejoin="round"/>
</svg>
