<svg width="94" height="94" viewBox="0 0 94 94" fill="none" xmlns="http://www.w3.org/2000/svg">
<path d="M41.7126 18.4346C41.2983 18.006 40.802 17.6651 40.2532 17.4324C39.7044 17.1996 39.1144 17.0796 38.5182 17.0796C37.9221 17.0796 37.3321 17.1996 36.7833 17.4324C36.2345 17.6651 35.7382 18.006 35.3239 18.4346L9.62222 44.1363C7.08636 46.6883 5.66309 50.14 5.66309 53.7377C5.66309 57.3354 7.08636 60.787 9.62222 63.3391L22.4363 76.1532C23.6983 77.4188 25.1977 78.4229 26.8484 79.108C28.4991 79.7932 30.2688 80.1458 32.0561 80.1458C33.8434 80.1458 35.6131 79.7932 37.2638 79.108C38.9146 78.4229 40.4139 77.4188 41.6759 76.1532L62.4942 55.3349L72.2609 54.3435C72.6836 54.2937 73.084 54.1264 73.4165 53.8605C73.7489 53.5946 74.0001 53.2408 74.1416 52.8393C74.2831 52.4378 74.3092 52.0046 74.2169 51.5891C74.1245 51.1735 73.9175 50.7921 73.6194 50.4883L41.7126 18.4346Z" stroke="white" stroke-width="5.88" stroke-linecap="round" stroke-linejoin="round"/>
<path d="M80.045 61.6868L72.7017 76.3734C71.9119 77.9223 71.6356 79.6823 71.9129 81.3986C72.1901 83.1149 73.0065 84.6984 74.2438 85.9198C75.7928 87.4668 77.8925 88.3358 80.0817 88.3358C82.271 88.3358 84.3707 87.4668 85.9197 85.9198C87.145 84.6898 87.9476 83.1022 88.2115 81.3862C88.4755 79.6703 88.1873 77.9148 87.3883 76.3734L80.045 61.6868Z" stroke="white" stroke-width="5.88" stroke-linecap="round" stroke-linejoin="round"/>
<path d="M15.7905 37.8944V16.7088C15.7905 13.7875 16.951 10.9858 19.0167 8.92007C21.0825 6.85435 23.8842 5.69385 26.8055 5.69385C29.7269 5.69385 32.5286 6.85435 34.5943 8.92007C36.66 10.9858 37.8205 13.7875 37.8205 16.7088V47.0001" stroke="white" stroke-width="5.88" stroke-linecap="round" stroke-linejoin="round"/>
</svg>
