<svg width="94" height="94" viewBox="0 0 94 94" fill="none" xmlns="http://www.w3.org/2000/svg">
<path d="M86.1667 93.0209H7.83333C6.53488 93.0209 5.2896 92.5051 4.37146 91.587C3.45331 90.6688 2.9375 89.4235 2.9375 88.1251C2.9375 86.8266 3.45331 85.5814 4.37146 84.6632C5.2896 83.7451 6.53488 83.2292 7.83333 83.2292H86.1667C87.4651 83.2292 88.7104 83.7451 89.6285 84.6632C90.5467 85.5814 91.0625 86.8266 91.0625 88.1251C91.0625 89.4235 90.5467 90.6688 89.6285 91.587C88.7104 92.5051 87.4651 93.0209 86.1667 93.0209Z" fill="white"/>
<path d="M86.1667 10.7709H7.83333C6.53488 10.7709 5.2896 10.2551 4.37146 9.33696C3.45331 8.41881 2.9375 7.17354 2.9375 5.87508C2.9375 4.57663 3.45331 3.33135 4.37146 2.4132C5.2896 1.49506 6.53488 0.979248 7.83333 0.979248H86.1667C87.4651 0.979248 88.7104 1.49506 89.6285 2.4132C90.5467 3.33135 91.0625 4.57663 91.0625 5.87508C91.0625 7.17354 90.5467 8.41881 89.6285 9.33696C88.7104 10.2551 87.4651 10.7709 86.1667 10.7709Z" fill="white"/>
<path d="M78.3335 38.1877H15.6668C14.3684 38.1877 13.1231 37.6719 12.205 36.7537C11.2868 35.8356 10.771 34.5903 10.771 33.2918C10.771 31.9934 11.2868 30.7481 12.205 29.83C13.1231 28.9118 14.3684 28.396 15.6668 28.396H78.3335C79.632 28.396 80.8772 28.9118 81.7954 29.83C82.7135 30.7481 83.2293 31.9934 83.2293 33.2918C83.2293 34.5903 82.7135 35.8356 81.7954 36.7537C80.8772 37.6719 79.632 38.1877 78.3335 38.1877Z" fill="white"/>
<path d="M68.5417 65.6042H25.4583C24.1599 65.6042 22.9146 65.0884 21.9965 64.1702C21.0783 63.2521 20.5625 62.0068 20.5625 60.7083C20.5625 59.4099 21.0783 58.1646 21.9965 57.2465C22.9146 56.3283 24.1599 55.8125 25.4583 55.8125H68.5417C69.8401 55.8125 71.0854 56.3283 72.0035 57.2465C72.9217 58.1646 73.4375 59.4099 73.4375 60.7083C73.4375 62.0068 72.9217 63.2521 72.0035 64.1702C71.0854 65.0884 69.8401 65.6042 68.5417 65.6042Z" fill="white"/>
</svg>
