<svg width="94" height="94" viewBox="0 0 94 94" fill="none" xmlns="http://www.w3.org/2000/svg">
<path d="M88.3057 33.2204L88.3057 60.7579C88.3057 60.7579 88.3057 66.2654 82.7982 66.2654L11.2007 66.2654C11.2007 66.2654 5.69317 66.2654 5.69317 60.7579L5.69317 33.2204C5.69317 33.2204 5.69317 27.7129 11.2007 27.7129L82.7982 27.7129C82.7982 27.7129 88.3057 27.7129 88.3057 33.2204Z" stroke="white" stroke-width="5.88" stroke-linecap="round" stroke-linejoin="round"/>
<path d="M77.291 8.43637L77.291 13.9439C77.291 13.9439 77.291 16.6976 74.5373 16.6976L19.4623 16.6976C19.4623 16.6976 16.7085 16.6976 16.7085 13.9439L16.7085 8.43636C16.7085 8.43636 16.7085 5.68261 19.4623 5.68261L74.5373 5.68262C74.5373 5.68262 77.291 5.68262 77.291 8.43637Z" stroke="white" stroke-width="5.88" stroke-linecap="round" stroke-linejoin="round"/>
<path d="M77.291 80.034L77.291 85.5415C77.291 85.5415 77.291 88.2953 74.5373 88.2953L19.4623 88.2953C19.4623 88.2953 16.7085 88.2953 16.7085 85.5415L16.7085 80.034C16.7085 80.034 16.7085 77.2803 19.4623 77.2803L74.5373 77.2803C74.5373 77.2803 77.291 77.2803 77.291 80.034Z" stroke="white" stroke-width="5.88" stroke-linecap="round" stroke-linejoin="round"/>
</svg>
