<svg width="94" height="94" viewBox="0 0 94 94" fill="none" xmlns="http://www.w3.org/2000/svg">
<path d="M88.1248 91.1408H5.87484C4.57638 91.1408 3.33111 90.625 2.41296 89.7068C1.49481 88.7887 0.979004 87.5434 0.979004 86.245C0.979004 84.9465 1.49481 83.7012 2.41296 82.7831C3.33111 81.8649 4.57638 81.3491 5.87484 81.3491H88.1248C89.4233 81.3491 90.6686 81.8649 91.5867 82.7831C92.5049 83.7012 93.0207 84.9465 93.0207 86.245C93.0207 87.5434 92.5049 88.7887 91.5867 89.7068C90.6686 90.625 89.4233 91.1408 88.1248 91.1408Z" fill="white"/>
<path d="M76.9232 12.6508H5.87484C4.57638 12.6508 3.33111 12.135 2.41296 11.2168C1.49481 10.2987 0.979004 9.05342 0.979004 7.75496C0.979004 6.45651 1.49481 5.21123 2.41296 4.29309C3.33111 3.37494 4.57638 2.85913 5.87484 2.85913H76.9232C78.2216 2.85913 79.4669 3.37494 80.385 4.29309C81.3032 5.21123 81.819 6.45651 81.819 7.75496C81.819 9.05342 81.3032 10.2987 80.385 11.2168C79.4669 12.135 78.2216 12.6508 76.9232 12.6508Z" fill="white"/>
<path d="M61.9615 38.8141H5.87484C4.57638 38.8141 3.33111 38.2983 2.41296 37.3802C1.49481 36.462 0.979004 35.2168 0.979004 33.9183C0.979004 32.6198 1.49481 31.3746 2.41296 30.4564C3.33111 29.5383 4.57638 29.0225 5.87484 29.0225H61.9615C63.26 29.0225 64.5052 29.5383 65.4234 30.4564C66.3415 31.3746 66.8573 32.6198 66.8573 33.9183C66.8573 35.2168 66.3415 36.462 65.4234 37.3802C64.5052 38.2983 63.26 38.8141 61.9615 38.8141Z" fill="white"/>
<path d="M73.1632 64.9775H5.87484C4.57638 64.9775 3.33111 64.4616 2.41296 63.5435C1.49481 62.6254 0.979004 61.3801 0.979004 60.0816C0.979004 58.7832 1.49481 57.5379 2.41296 56.6197C3.33111 55.7016 4.57638 55.1858 5.87484 55.1858H73.1632C74.4616 55.1858 75.7069 55.7016 76.6251 56.6197C77.5432 57.5379 78.059 58.7832 78.059 60.0816C78.059 61.3801 77.5432 62.6254 76.6251 63.5435C75.7069 64.4616 74.4616 64.9775 73.1632 64.9775Z" fill="white"/>
</svg>
