<svg width="94" height="94" viewBox="0 0 94 94" fill="none" xmlns="http://www.w3.org/2000/svg">
<path d="M88 2C88.0055 2 92 2.00275 92 6V88C92 88.0055 91.9972 92 88 92H6C6 92 2 92 2 88V6C2 6 2 2 6 2H88ZM47 19.4541C46.7861 19.4541 46.5748 19.5006 46.3809 19.5908C46.1868 19.6811 46.0138 19.8128 45.876 19.9766L22.6787 45.752C22.3805 46.0994 22.2168 46.5421 22.2168 47C22.2168 47.4579 22.3805 47.9006 22.6787 48.248L45.876 74.0234C46.0138 74.1872 46.1868 74.3189 46.3809 74.4092C46.5748 74.4994 46.7861 74.5459 47 74.5459C47.2139 74.5459 47.4252 74.4994 47.6191 74.4092C47.8131 74.3189 47.9852 74.1871 48.123 74.0234L71.3213 48.248C71.6194 47.9006 71.7832 47.4579 71.7832 47C71.7832 46.5421 71.6195 46.0994 71.3213 45.752L48.123 19.9766C47.9852 19.8129 47.8131 19.6811 47.6191 19.5908C47.4252 19.5006 47.2139 19.4541 47 19.4541Z" fill="white"/>
</svg>
