<svg width="94" height="94" viewBox="0 0 94 94" fill="none" xmlns="http://www.w3.org/2000/svg">
<path d="M40.6449 15.226C40.6449 20.4906 36.3773 24.7583 31.1128 24.7583C25.8483 24.7583 21.5806 20.4906 21.5806 15.226C21.5806 9.96157 25.8483 5.69385 31.1128 5.69385C36.3773 5.69385 40.6449 9.96157 40.6449 15.226Z" stroke="white" stroke-width="5.88"/>
<path d="M40.6449 47.0001C40.6449 52.2646 36.3773 56.5321 31.1128 56.5321C25.8483 56.5321 21.5806 52.2646 21.5806 47.0001C21.5806 41.7353 25.8483 37.4678 31.1128 37.4678C36.3773 37.4678 40.6449 41.7353 40.6449 47.0001Z" stroke="white" stroke-width="5.88"/>
<path d="M40.6449 78.7738C40.6449 84.0383 36.3773 88.3058 31.1128 88.3058C25.8483 88.3058 21.5806 84.0383 21.5806 78.7738C21.5806 73.5094 25.8483 69.2415 31.1128 69.2415C36.3773 69.2415 40.6449 73.5094 40.6449 78.7738Z" stroke="white" stroke-width="5.88"/>
<path d="M72.4199 15.226C72.4199 20.4906 68.1523 24.7583 62.8875 24.7583C57.623 24.7583 53.3555 20.4906 53.3555 15.226C53.3555 9.96157 57.623 5.69385 62.8875 5.69385C68.1523 5.69385 72.4199 9.96157 72.4199 15.226Z" stroke="white" stroke-width="5.88"/>
<path d="M72.4199 47.0001C72.4199 52.2646 68.1523 56.5321 62.8875 56.5321C57.623 56.5321 53.3555 52.2646 53.3555 47.0001C53.3555 41.7353 57.623 37.4678 62.8875 37.4678C68.1523 37.4678 72.4199 41.7353 72.4199 47.0001Z" stroke="white" stroke-width="5.88"/>
<path d="M72.4199 78.7738C72.4199 84.0383 68.1523 88.3058 62.8875 88.3058C57.623 88.3058 53.3555 84.0383 53.3555 78.7738C53.3555 73.5094 57.623 69.2415 62.8875 69.2415C68.1523 69.2415 72.4199 73.5094 72.4199 78.7738Z" stroke="white" stroke-width="5.88"/>
</svg>
