<svg width="94" height="94" viewBox="0 0 94 94" fill="none" xmlns="http://www.w3.org/2000/svg">
<path d="M33.2311 5.68262H60.7686C60.7686 5.68262 66.2761 5.68262 66.2761 11.1901V82.7876C66.2761 82.7876 66.2761 88.2951 60.7686 88.2951H33.2311C33.2311 88.2951 27.7236 88.2951 27.7236 82.7876V11.1901C27.7236 11.1901 27.7236 5.68262 33.2311 5.68262Z" stroke="white" stroke-width="5.88" stroke-linecap="round" stroke-linejoin="round"/>
<path d="M8.44711 16.6978H13.9546C13.9546 16.6978 16.7084 16.6978 16.7084 19.4515V74.5265C16.7084 74.5265 16.7084 77.2803 13.9546 77.2803H8.44711C8.44711 77.2803 5.69336 77.2803 5.69336 74.5265V19.4515C5.69336 19.4515 5.69336 16.6978 8.44711 16.6978Z" stroke="white" stroke-width="5.88" stroke-linecap="round" stroke-linejoin="round"/>
<path d="M80.0448 16.6978H85.5523C85.5523 16.6978 88.306 16.6978 88.306 19.4515V74.5265C88.306 74.5265 88.306 77.2803 85.5523 77.2803H80.0448C80.0448 77.2803 77.291 77.2803 77.291 74.5265V19.4515C77.291 19.4515 77.291 16.6978 80.0448 16.6978Z" stroke="white" stroke-width="5.88" stroke-linecap="round" stroke-linejoin="round"/>
</svg>
