<svg width="94" height="94" viewBox="0 0 94 94" fill="none" xmlns="http://www.w3.org/2000/svg">
<path d="M47 77.2913V88.3063" stroke="white" stroke-width="5.88" stroke-linecap="round" stroke-linejoin="round"/>
<path d="M47 38.7388V55.2613" stroke="white" stroke-width="5.88" stroke-linecap="round" stroke-linejoin="round"/>
<path d="M47 5.69385V16.7088" stroke="white" stroke-width="5.88" stroke-linecap="round" stroke-linejoin="round"/>
<path d="M14.8728 55.2612H79.127C79.127 55.2612 82.7987 55.2612 82.7987 58.9329V73.6196C82.7987 73.6196 82.7987 77.2912 79.127 77.2912H14.8728C14.8728 77.2912 11.2012 77.2912 11.2012 73.6196V58.9329C11.2012 58.9329 11.2012 55.2612 14.8728 55.2612Z" fill="white" stroke="white" stroke-width="5.88" stroke-linecap="round" stroke-linejoin="round"/>
<path d="M25.888 16.7087H68.1121C68.1121 16.7087 71.7838 16.7087 71.7838 20.3804V35.0671C71.7838 35.0671 71.7838 38.7387 68.1121 38.7387H25.888C25.888 38.7387 22.2163 38.7387 22.2163 35.0671V20.3804C22.2163 20.3804 22.2163 16.7087 25.888 16.7087Z" fill="white" stroke="white" stroke-width="5.88" stroke-linecap="round" stroke-linejoin="round"/>
</svg>
