<svg width="94" height="94" viewBox="0 0 94 94" fill="none" xmlns="http://www.w3.org/2000/svg">
<path d="M38.7387 20.3804V84.6346C38.7387 84.6346 38.7387 88.3062 35.067 88.3062H20.3142C20.3142 88.3062 16.6426 88.3062 16.6426 84.6346V20.3804C16.6426 20.3804 16.6426 16.7087 20.3142 16.7087H35.067C35.067 16.7087 38.7387 16.7087 38.7387 20.3804Z" fill="white" stroke="white" stroke-width="5.88" stroke-linecap="round" stroke-linejoin="round"/>
<path d="M77.3573 20.3804V54.3433C77.3573 54.3433 77.3573 58.015 73.6857 58.015H58.9329C58.9329 58.015 55.2612 58.015 55.2612 54.3433V20.3804C55.2612 20.3804 55.2612 16.7087 58.9329 16.7087H73.6857C73.6857 16.7087 77.3573 16.7087 77.3573 20.3804Z" fill="white" stroke="white" stroke-width="5.88" stroke-linecap="round" stroke-linejoin="round"/>
<path d="M88.3063 5.69385H5.69385" stroke="white" stroke-width="5.88" stroke-linecap="round" stroke-linejoin="round"/>
</svg>
