<svg width="94" height="94" viewBox="0 0 94 94" fill="none" xmlns="http://www.w3.org/2000/svg">
<path d="M73.6197 77.3573H9.36551C9.36551 77.3573 5.69385 77.3573 5.69385 73.6857V58.9329C5.69385 58.9329 5.69385 55.2612 9.36551 55.2612H73.6197C73.6197 55.2612 77.2913 55.2612 77.2913 58.9329V73.6857C77.2913 73.6857 77.2913 77.3573 73.6197 77.3573Z" fill="white" stroke="white" stroke-width="5.88" stroke-linecap="round" stroke-linejoin="round"/>
<path d="M73.6194 38.7387H39.6565C39.6565 38.7387 35.9849 38.7387 35.9849 35.067V20.3142C35.9849 20.3142 35.9849 16.6426 39.6565 16.6426H73.6194C73.6194 16.6426 77.2911 16.6426 77.2911 20.3142V35.067C77.2911 35.067 77.2911 38.7387 73.6194 38.7387Z" fill="white" stroke="white" stroke-width="5.88" stroke-linecap="round" stroke-linejoin="round"/>
<path d="M88.3062 5.69385V88.3063" stroke="white" stroke-width="5.88" stroke-linecap="round" stroke-linejoin="round"/>
</svg>
