<svg width="94" height="94" viewBox="0 0 94 94" fill="none" xmlns="http://www.w3.org/2000/svg">
<path d="M46.9999 22.22C32.1995 21.9703 16.8923 32.3134 7.26884 42.9062C6.2587 44.0276 5.69971 45.4834 5.69971 46.9927C5.69971 48.502 6.2587 49.9579 7.26884 51.0793C16.683 61.4481 31.9461 72.0298 46.9999 71.7765C62.0538 72.0298 77.3206 61.4481 86.7421 51.0793C87.7522 49.9579 88.3112 48.502 88.3112 46.9927C88.3112 45.4834 87.7522 44.0276 86.7421 42.9062C77.1076 32.3134 61.8004 21.9703 46.9999 22.22Z" stroke="white" stroke-width="5.88" stroke-linecap="round" stroke-linejoin="round"/>
<path d="M60.769 47C60.7682 49.723 59.9601 52.3847 58.4467 54.6485C56.9333 56.9122 54.7827 58.6764 52.2667 59.718C49.7508 60.7596 46.9824 61.0317 44.3118 60.5C41.6412 59.9683 39.1882 58.6567 37.2629 56.731C35.3377 54.8052 34.0267 52.3519 33.4957 49.6811C32.9648 47.0103 33.2377 44.2421 34.2799 41.7264C35.3221 39.2107 37.0869 37.0605 39.3511 35.5477C41.6153 34.035 44.2772 33.2275 47.0002 33.2275C48.8088 33.2271 50.5997 33.583 52.2707 34.275C53.9416 34.967 55.4599 35.9815 56.7386 37.2605C58.0172 38.5396 59.0313 40.058 59.7229 41.7292C60.4145 43.4003 60.7699 45.1914 60.769 47Z" stroke="white" stroke-width="5.88" stroke-linecap="round" stroke-linejoin="round"/>
</svg>
