<svg width="94" height="94" viewBox="0 0 94 94" fill="none" xmlns="http://www.w3.org/2000/svg">
<path d="M88.0467 91.0624H5.79671C4.49826 91.0624 3.25298 90.5466 2.33484 89.6285C1.41669 88.7103 0.900879 87.465 0.900879 86.1666C0.900879 84.8681 1.41669 83.6229 2.33484 82.7047C3.25298 81.7866 4.49826 81.2708 5.79671 81.2708H88.0467C89.3452 81.2708 90.5904 81.7866 91.5086 82.7047C92.4267 83.6229 92.9425 84.8681 92.9425 86.1666C92.9425 87.465 92.4267 88.7103 91.5086 89.6285C90.5904 90.5466 89.3452 91.0624 88.0467 91.0624Z" fill="white"/>
<path d="M88.0468 12.7292H17.1551C15.8567 12.7292 14.6114 12.2134 13.6932 11.2952C12.7751 10.3771 12.2593 9.13179 12.2593 7.83333C12.2593 6.53488 12.7751 5.2896 13.6932 4.37146C14.6114 3.45331 15.8567 2.9375 17.1551 2.9375H88.0468C89.3452 2.9375 90.5905 3.45331 91.5087 4.37146C92.4268 5.2896 92.9426 6.53488 92.9426 7.83333C92.9426 9.13179 92.4268 10.3771 91.5087 11.2952C90.5905 12.2134 89.3452 12.7292 88.0468 12.7292Z" fill="white"/>
<path d="M88.0466 38.8534H32.0775C31.4345 38.8534 30.7979 38.7268 30.2039 38.4808C29.6099 38.2347 29.0702 37.8741 28.6156 37.4195C28.161 36.9649 27.8004 36.4251 27.5543 35.8312C27.3083 35.2372 27.1816 34.6005 27.1816 33.9576C27.1816 33.3147 27.3083 32.678 27.5543 32.084C27.8004 31.4901 28.161 30.9503 28.6156 30.4957C29.0702 30.0411 29.6099 29.6805 30.2039 29.4344C30.7979 29.1884 31.4345 29.0618 32.0775 29.0618H88.0466C89.3451 29.0618 90.5904 29.5776 91.5085 30.4957C92.4267 31.4139 92.9425 32.6591 92.9425 33.9576C92.9425 35.2561 92.4267 36.5013 91.5085 37.4195C90.5904 38.3376 89.3451 38.8534 88.0466 38.8534Z" fill="white"/>
<path d="M88.0466 64.9384H20.8758C19.5774 64.9384 18.3321 64.4226 17.4139 63.5044C16.4958 62.5863 15.98 61.341 15.98 60.0426C15.98 58.7441 16.4958 57.4988 17.4139 56.5807C18.3321 55.6625 19.5774 55.1467 20.8758 55.1467H88.0466C89.3451 55.1467 90.5904 55.6625 91.5085 56.5807C92.4267 57.4988 92.9425 58.7441 92.9425 60.0426C92.9425 61.341 92.4267 62.5863 91.5085 63.5044C90.5904 64.4226 89.3451 64.9384 88.0466 64.9384Z" fill="white"/>
</svg>
