<svg width="94" height="94" viewBox="0 0 94 94" fill="none" xmlns="http://www.w3.org/2000/svg">
<path d="M60.0425 41.0859C59.8767 40.3262 59.4561 39.6461 58.8506 39.1584C58.245 38.6707 57.4908 38.4048 56.7133 38.4048C55.9358 38.4048 55.1816 38.6707 54.576 39.1584C53.9705 39.6461 53.5499 40.3262 53.3841 41.0859L47 54.8334C46.9216 54.9799 46.8099 55.1058 46.6738 55.2011C46.5377 55.2964 46.3811 55.3582 46.2166 55.3817C46.0548 55.4028 45.8902 55.3814 45.7391 55.3196C45.588 55.2578 45.4556 55.1577 45.355 55.0292L41.0466 49.8984C40.5967 49.2428 39.9825 48.7167 39.2655 48.3729C38.5486 48.029 37.7539 47.8793 36.961 47.9388C36.168 47.9983 35.4046 48.2648 34.7469 48.7118C34.0893 49.1587 33.5605 49.7705 33.2133 50.4859L23.7741 66.5834C23.5929 66.8811 23.4944 67.2219 23.4888 67.5704C23.4832 67.919 23.5708 68.2627 23.7424 68.5661C23.9141 68.8695 24.1636 69.1215 24.4653 69.2963C24.7669 69.471 25.1097 69.5621 25.4583 69.56H68.5416C68.8624 69.5584 69.1778 69.4781 69.4602 69.326C69.7427 69.174 69.9834 68.9549 70.1613 68.688C70.3392 68.4211 70.4489 68.1146 70.4806 67.7955C70.5123 67.4763 70.4652 67.1542 70.3433 66.8575L60.0425 41.0859Z" fill="white"/>
<path d="M23.5 30.3541C23.5 31.3828 23.7026 32.4014 24.0963 33.3518C24.4899 34.3022 25.0669 35.1657 25.7943 35.8931C26.5217 36.6205 27.3853 37.1975 28.3356 37.5911C29.286 37.9848 30.3046 38.1874 31.3333 38.1874C32.362 38.1874 33.3806 37.9848 34.331 37.5911C35.2814 37.1975 36.1449 36.6205 36.8723 35.8931C37.5997 35.1657 38.1767 34.3022 38.5704 33.3518C38.9641 32.4014 39.1667 31.3828 39.1667 30.3541C39.1667 29.3254 38.9641 28.3068 38.5704 27.3564C38.1767 26.406 37.5997 25.5425 36.8723 24.8151C36.1449 24.0877 35.2814 23.5107 34.331 23.117C33.3806 22.7234 32.362 22.5208 31.3333 22.5208C30.3046 22.5208 29.286 22.7234 28.3356 23.117C27.3853 23.5107 26.5217 24.0877 25.7943 24.8151C25.0669 25.5425 24.4899 26.406 24.0963 27.3564C23.7026 28.3068 23.5 29.3254 23.5 30.3541Z" fill="white"/>
<path d="M15.6667 10.7708H7.83333C5.7558 10.7708 3.76337 11.596 2.29433 13.0651C0.825295 14.5341 0 16.5266 0 18.6041L0 26.4374C0 27.4762 0.412648 28.4724 1.14717 29.2069C1.88168 29.9414 2.8779 30.3541 3.91667 30.3541C4.95543 30.3541 5.95165 29.9414 6.68617 29.2069C7.42069 28.4724 7.83333 27.4762 7.83333 26.4374V20.5624C7.83333 20.043 8.03966 19.5449 8.40692 19.1777C8.77417 18.8104 9.27228 18.6041 9.79167 18.6041H15.6667C16.7054 18.6041 17.7017 18.1914 18.4362 17.4569C19.1707 16.7224 19.5833 15.7262 19.5833 14.6874C19.5833 13.6487 19.1707 12.6524 18.4362 11.9179C17.7017 11.1834 16.7054 10.7708 15.6667 10.7708Z" fill="white"/>
<path d="M19.5833 79.3124C19.5833 78.7981 19.482 78.2888 19.2852 77.8136C19.0884 77.3384 18.7999 76.9066 18.4362 76.5429C18.0725 76.1792 17.6407 75.8907 17.1655 75.6939C16.6903 75.4971 16.181 75.3958 15.6667 75.3958H9.79167C9.27228 75.3958 8.77417 75.1894 8.40692 74.8222C8.03966 74.4549 7.83333 73.9568 7.83333 73.4374V67.5624C7.83333 66.5237 7.42069 65.5274 6.68617 64.7929C5.95165 64.0584 4.95543 63.6458 3.91667 63.6458C2.8779 63.6458 1.88168 64.0584 1.14717 64.7929C0.412648 65.5274 0 66.5237 0 67.5624L0 75.3958C0 77.4733 0.825295 79.4657 2.29433 80.9348C3.76337 82.4038 5.7558 83.2291 7.83333 83.2291H15.6667C16.7054 83.2291 17.7017 82.8164 18.4362 82.0819C19.1707 81.3474 19.5833 80.3512 19.5833 79.3124Z" fill="white"/>
<path d="M86.1667 10.7708H78.3334C77.2947 10.7708 76.2984 11.1834 75.5639 11.9179C74.8294 12.6524 74.4167 13.6487 74.4167 14.6874C74.4167 15.7262 74.8294 16.7224 75.5639 17.4569C76.2984 18.1914 77.2947 18.6041 78.3334 18.6041H84.2084C84.7278 18.6041 85.2259 18.8104 85.5932 19.1777C85.9604 19.5449 86.1667 20.043 86.1667 20.5624V26.4374C86.1667 27.4762 86.5794 28.4724 87.3139 29.2069C88.0484 29.9414 89.0447 30.3541 90.0834 30.3541C91.1222 30.3541 92.1184 29.9414 92.8529 29.2069C93.5874 28.4724 94.0001 27.4762 94.0001 26.4374V18.6041C94.0001 16.5266 93.1748 14.5341 91.7058 13.0651C90.2367 11.596 88.2443 10.7708 86.1667 10.7708Z" fill="white"/>
<path d="M90.0834 63.6458C89.5691 63.6458 89.0598 63.7471 88.5846 63.9439C88.1094 64.1407 87.6776 64.4292 87.3139 64.7929C86.9502 65.1566 86.6617 65.5884 86.4649 66.0636C86.2681 66.5388 86.1667 67.0481 86.1667 67.5624V73.4374C86.1667 73.9568 85.9604 74.4549 85.5932 74.8222C85.2259 75.1894 84.7278 75.3958 84.2084 75.3958H78.3334C77.2947 75.3958 76.2984 75.8084 75.5639 76.5429C74.8294 77.2774 74.4167 78.2737 74.4167 79.3124C74.4167 80.3512 74.8294 81.3474 75.5639 82.0819C76.2984 82.8164 77.2947 83.2291 78.3334 83.2291H86.1667C88.2443 83.2291 90.2367 82.4038 91.7058 80.9348C93.1748 79.4657 94.0001 77.4733 94.0001 75.3958V67.5624C94.0001 66.5237 93.5874 65.5274 92.8529 64.7929C92.1184 64.0584 91.1222 63.6458 90.0834 63.6458Z" fill="white"/>
</svg>
