<svg width="94" height="94" viewBox="0 0 94 94" fill="none" xmlns="http://www.w3.org/2000/svg">
<path d="M13.1475 80.0451L81.9912 13.9551" stroke="white" stroke-width="5.88" stroke-linecap="round" stroke-linejoin="round"/>
<path d="M35.9849 72.8853C39.55 73.9981 43.2652 74.5553 46.9999 74.5375C62.0537 74.7946 77.3278 64.2202 86.7273 53.8293C87.7413 52.7141 88.3031 51.261 88.3031 49.7538C88.3031 48.2465 87.7413 46.7934 86.7273 45.6782C83.3285 41.9216 79.5511 38.5257 75.4553 35.5444" stroke="white" stroke-width="5.88" stroke-linecap="round" stroke-linejoin="round"/>
<path d="M65.6888 29.633C59.9108 26.6354 53.509 25.0381 47 24.97C32.3134 24.713 16.8924 35.0671 7.27259 45.6782C6.25862 46.7934 5.69678 48.2465 5.69678 49.7538C5.69678 51.261 6.25862 52.7141 7.27259 53.8293C12.4859 59.6574 18.5967 64.6154 25.3739 68.516" stroke="white" stroke-width="5.88" stroke-linecap="round" stroke-linejoin="round"/>
<path d="M35.985 58.2721C33.9932 55.5089 33.0662 52.1193 33.3744 48.727C33.6827 45.3347 35.2055 42.1678 37.6628 39.8088C40.12 37.4499 43.3465 36.0575 46.7485 35.8879C50.1506 35.7183 53.4995 36.7829 56.1792 38.8857" stroke="white" stroke-width="5.88" stroke-linecap="round" stroke-linejoin="round"/>
<path d="M60.7687 49.7539C60.7687 51.562 60.4126 53.3525 59.7207 55.023C59.0287 56.6935 58.0145 58.2113 56.736 59.4899C55.4574 60.7684 53.9396 61.7826 52.2691 62.4746C50.5986 63.1665 48.8081 63.5227 47 63.5227" stroke="white" stroke-width="5.88" stroke-linecap="round" stroke-linejoin="round"/>
</svg>
