<svg width="94" height="94" viewBox="0 0 94 94" fill="none" xmlns="http://www.w3.org/2000/svg">
<path d="M16.6426 73.6197V9.36551C16.6426 9.36551 16.6426 5.69385 20.3142 5.69385H35.067C35.067 5.69385 38.7387 5.69385 38.7387 9.36551V73.6197C38.7387 73.6197 38.7387 77.2913 35.067 77.2913H20.3142C20.3142 77.2913 16.6426 77.2913 16.6426 73.6197Z" fill="white" stroke="white" stroke-width="5.88" stroke-linecap="round" stroke-linejoin="round"/>
<path d="M55.2612 73.6197V39.6568C55.2612 39.6568 55.2612 35.9851 58.9329 35.9851H73.6857C73.6857 35.9851 77.3573 35.9851 77.3573 39.6568V73.6197C77.3573 73.6197 77.3573 77.2914 73.6857 77.2914H58.9329C58.9329 77.2914 55.2612 77.2914 55.2612 73.6197Z" fill="white" stroke="white" stroke-width="5.88" stroke-linecap="round" stroke-linejoin="round"/>
<path d="M88.3063 88.3062H5.69385" stroke="white" stroke-width="5.88" stroke-linecap="round" stroke-linejoin="round"/>
</svg>
